<?xml version="1.0" standalone="no"?>
<!DOCTYPE svg PUBLIC "-//W3C//DTD SVG 20010904//EN"
 "http://www.w3.org/TR/2001/REC-SVG-20010904/DTD/svg10.dtd">
<svg version="1.0" xmlns="http://www.w3.org/2000/svg"
 width="1000.000000pt" height="623.000000pt" viewBox="0 0 1000.000000 623.000000"
 preserveAspectRatio="xMidYMid meet">

<g transform="translate(0.000000,623.000000) scale(0.100000,-0.100000)"
fill="#000000" stroke="none">
<path d="M6020 6223 c-30 -2 -112 -10 -181 -18 -629 -74 -1222 -343 -1704
-772 l-100 -88 83 -3 82 -3 71 61 c418 360 934 593 1519 685 163 26 568 32
750 11 664 -76 1274 -361 1744 -816 504 -487 797 -1063 903 -1775 25 -170 25
-610 0 -780 -89 -596 -304 -1085 -674 -1532 -97 -117 -304 -321 -423 -416
-448 -358 -972 -576 -1550 -642 -182 -21 -586 -16 -750 10 -573 90 -1078 315
-1498 668 l-93 78 -82 -3 -82 -3 100 -88 c413 -368 921 -624 1450 -731 691
-140 1390 -48 2018 265 733 365 1294 1010 1559 1789 215 632 215 1358 0 1990
-253 743 -764 1353 -1460 1739 -491 273 -1100 408 -1682 374z"/>
<path d="M5000 5005 c-8 -2 -49 -9 -90 -15 -369 -60 -700 -315 -875 -674 -115
-236 -164 -529 -136 -821 33 -345 136 -594 332 -800 177 -186 402 -307 676
-362 69 -14 137 -18 318 -18 213 0 238 2 340 27 141 33 252 76 351 136 l79 47
3 628 2 627 -430 0 -430 0 0 -105 0 -105 310 0 310 0 0 -455 0 -456 -47 -20
c-166 -71 -287 -94 -498 -93 -351 0 -598 94 -796 300 -193 202 -282 455 -282
804 0 337 87 592 274 804 108 123 312 246 472 286 313 78 718 24 965 -130 l63
-40 -3 133 -3 132 -60 32 c-81 43 -249 98 -365 118 -86 15 -439 30 -480 20z"/>
<path d="M2595 4980 c-335 -47 -579 -235 -651 -500 -13 -46 -18 -101 -18 -185
0 -108 3 -130 32 -215 39 -117 75 -170 183 -266 92 -82 223 -153 544 -294 390
-171 507 -289 507 -511 1 -195 -79 -327 -246 -405 -179 -83 -468 -87 -717 -8
-102 32 -198 75 -255 114 l-45 31 3 -133 3 -133 70 -35 c171 -86 351 -123 590
-124 246 -1 399 36 548 133 194 127 287 307 287 556 0 125 -19 206 -72 307
-95 183 -230 275 -707 483 -142 62 -280 143 -359 211 -169 146 -169 446 1 601
101 92 223 137 401 149 155 10 375 -35 518 -107 32 -16 60 -29 63 -29 3 0 5
58 5 129 l0 130 -78 30 c-160 61 -443 95 -607 71z"/>
<path d="M7235 4980 c-260 -35 -492 -179 -593 -367 -72 -137 -94 -340 -51
-493 37 -135 70 -190 169 -283 109 -101 182 -144 449 -263 337 -149 457 -218
537 -306 79 -88 111 -225 84 -360 -31 -162 -135 -272 -315 -335 -76 -26 -89
-27 -265 -28 -169 0 -194 3 -293 28 -125 31 -224 70 -319 126 l-68 40 0 -130
0 -129 70 -35 c180 -90 357 -128 605 -129 253 -1 397 36 561 146 181 121 268
297 268 543 0 192 -52 324 -179 451 -94 94 -219 169 -459 276 -252 112 -319
146 -409 207 -166 112 -224 219 -215 391 10 167 91 283 251 359 107 51 176 65
322 65 172 0 383 -50 501 -119 l44 -26 0 130 0 130 -32 17 c-53 27 -166 63
-251 79 -101 19 -320 27 -412 15z"/>
</g>
</svg>
