<?xml version="1.0" encoding="UTF-8"?>
<svg version="1.1" xmlns="http://www.w3.org/2000/svg" width="123" height="124">
<path d="M0 0 C40.59 0 81.18 0 123 0 C123 40.92 123 81.84 123 124 C82.41 124 41.82 124 0 124 C0 83.08 0 42.16 0 0 Z " fill="#FDFEFE" transform="translate(0,0)"/>
<path d="M0 0 C1.99305794 -0.02446353 3.98563877 -0.08103298 5.97802734 -0.13818359 C15.7742237 -0.22732997 21.67556417 1.37539623 28.90380859 7.97509766 C29.60505859 8.75884766 30.30630859 9.54259766 31.02880859 10.35009766 C31.56505859 10.80384766 32.10130859 11.25759766 32.65380859 11.72509766 C36.72677473 16.53860309 37.18471923 21.17121481 37.46630859 27.28759766 C37.86075099 34.8625017 39.77869519 40.64345265 45.02880859 46.35009766 C48.51339566 47.51162668 51.29571367 47.4828009 54.96630859 47.47509766 C56.80515625 47.47896484 56.80515625 47.47896484 58.68115234 47.48291016 C62.45918671 47.36392685 62.45918671 47.36392685 66.02880859 46.35009766 C67.41818937 44.38861892 68.75484969 42.3884319 70.02880859 40.35009766 C72.43426497 39.14736947 73.97877812 39.24938294 76.65380859 39.28759766 C77.87970703 39.30113281 77.87970703 39.30113281 79.13037109 39.31494141 C79.75685547 39.32654297 80.38333984 39.33814453 81.02880859 39.35009766 C80.57842089 44.19176552 79.42908698 46.84678053 76.02880859 50.35009766 C75.36880859 50.35009766 74.70880859 50.35009766 74.02880859 50.35009766 C73.69880859 51.34009766 73.36880859 52.33009766 73.02880859 53.35009766 C64.4358137 57.6465951 55.19829663 58.65518166 45.77880859 56.66259766 C38.7621431 53.31373458 34.26523718 50.63206197 31.02880859 43.35009766 C31.02880859 42.36009766 31.02880859 41.37009766 31.02880859 40.35009766 C30.36880859 40.35009766 29.70880859 40.35009766 29.02880859 40.35009766 C27.8225834 36.73142207 27.92063942 33.42503515 27.96630859 29.66259766 C27.97082031 28.96070312 27.97533203 28.25880859 27.97998047 27.53564453 C27.99173933 25.80709227 28.00967406 24.078584 28.02880859 22.35009766 C27.36880859 22.35009766 26.70880859 22.35009766 26.02880859 22.35009766 C25.72587891 21.73521484 25.42294922 21.12033203 25.11083984 20.48681641 C21.88694072 14.13907052 21.88694072 14.13907052 16.02880859 10.35009766 C12.72950446 9.34758903 9.60895466 9.15653144 6.16943359 9.03369141 C5.05439453 8.99179687 3.93935547 8.94990234 2.79052734 8.90673828 C1.63166016 8.86742187 0.47279297 8.82810547 -0.72119141 8.78759766 C-1.89552734 8.74441406 -3.06986328 8.70123047 -4.27978516 8.65673828 C-7.17680591 8.55074972 -10.07391076 8.44868128 -12.97119141 8.35009766 C-13.01360864 6.0171499 -13.01212078 3.68307199 -12.97119141 1.35009766 C-10.3772341 -1.24385965 -3.51090755 0.03149178 0 0 Z " fill="#A7E1FE" transform="translate(25.97119140625,34.64990234375)"/>
<path d="M0 0 C3.3 0 6.6 0 10 0 C10 11.22 10 22.44 10 34 C19.9 33.505 19.9 33.505 30 33 C30 32.34 30 31.68 30 31 C34.30232558 26.23255814 34.30232558 26.23255814 38 25 C39.73173737 27.52545033 40.91034067 29.54049594 41.5 32.5625 C41 35 41 35 39.25 37.0625 C27.4243605 44.11240047 14.47156197 44.17207277 1 43 C0 42 0 42 -0.11352539 38.03100586 C-0.1133662 36.25894393 -0.10766785 34.4868774 -0.09765625 32.71484375 C-0.0962413 31.78402481 -0.09482635 30.85320587 -0.09336853 29.8941803 C-0.08775172 26.90858809 -0.0751964 23.92306971 -0.0625 20.9375 C-0.05748716 18.91862087 -0.05292388 16.89974057 -0.04882812 14.88085938 C-0.03777683 9.92054428 -0.02050095 4.96028468 0 0 Z " fill="#B2EDFE" transform="translate(14,49)"/>
<path d="M0 0 C15.16944809 0.61014424 15.16944809 0.61014424 21 4 C21.33 4.66 21.66 5.32 22 6 C23.64333504 7.03789581 25.31243867 8.03567924 27 9 C27.99 9.66 28.98 10.32 30 11 C30.3125 13.5 30.3125 13.5 30 16 C29.34 16.66 28.68 17.32 28 18 C25.8359375 17.9765625 25.8359375 17.9765625 23.375 17.625 C22.55773437 17.51414062 21.74046875 17.40328125 20.8984375 17.2890625 C20.27195312 17.19367187 19.64546875 17.09828125 19 17 C19.33 17.66 19.66 18.32 20 19 C22.52733235 19.65555119 22.52733235 19.65555119 25 20 C25.042721 21.66611905 25.04063832 23.33382885 25 25 C24 26 24 26 21.9609375 26.1328125 C16.86453933 26.11741553 12.0226306 25.87350097 7 25 C7 24.01 7 23.02 7 22 C7.66 22 8.32 22 9 22 C9 21.34 9 20.68 9 20 C7.68 20 6.36 20 5 20 C5 19.34 5 18.68 5 18 C2.525 17.01 2.525 17.01 0 16 C0 15.34 0 14.68 0 14 C3.3 14 6.6 14 10 14 C10 13.34 10 12.68 10 12 C8.906875 12.061875 7.81375 12.12375 6.6875 12.1875 C3 12 3 12 1.0625 10.5 C0.711875 10.005 0.36125 9.51 0 9 C2.64 8.67 5.28 8.34 8 8 C7.34 7.34 6.68 6.68 6 6 C7.65 6 9.3 6 11 6 C11 5.34 11 4.68 11 4 C6.71 4 2.42 4 -2 4 C-0.68 3.67 0.64 3.34 2 3 C2 2.34 2 1.68 2 1 C1.34 0.67 0.68 0.34 0 0 Z " fill="#CDDFFC" transform="translate(44,8)"/>
<path d="M0 0 C1.53513266 0.02011799 3.0702911 0.0383593 4.60546875 0.0546875 C8.32085943 0.09821243 12.03525776 0.16693903 15.75 0.25 C15.75 3.22 15.75 6.19 15.75 9.25 C14.78175293 9.26458252 13.81350586 9.27916504 12.81591797 9.29418945 C9.20373676 9.35241567 5.59216317 9.42964536 1.98046875 9.51245117 C0.42099919 9.54558667 -1.13858702 9.5736537 -2.69824219 9.59643555 C-4.94776852 9.63019281 -7.19623687 9.68251504 -9.4453125 9.73828125 C-10.1361795 9.74467117 -10.82704651 9.7510611 -11.53884888 9.75764465 C-19.15495632 9.98598034 -23.09986763 12.9568084 -28.25 18.25 C-28.91 18.25 -29.57 18.25 -30.25 18.25 C-33.28617571 13.02777778 -33.28617571 13.02777778 -33.125 9.5625 C-31.83879799 6.16325182 -30.17971592 4.7162327 -26.93847656 3.09082031 C-17.848095 -0.19948534 -9.51639176 -0.21933845 0 0 Z " fill="#9CDAFE" transform="translate(94.25,33.75)"/>
<path d="M0 0 C10.56 0 21.12 0 32 0 C32 2.64 32 5.28 32 8 C21.44 8 10.88 8 0 8 C0 5.36 0 2.72 0 0 Z " fill="#AADFFE" transform="translate(78,60)"/>
<path d="M0 0 C1.32 0 2.64 0 4 0 C4 5.94 4 11.88 4 18 C2.68 18 1.36 18 0 18 C-0.33 16.68 -0.66 15.36 -1 14 C-1.99 15.485 -1.99 15.485 -3 17 C-5.05859375 17.546875 -5.05859375 17.546875 -7.4375 17.75 C-8.21996094 17.82734375 -9.00242187 17.9046875 -9.80859375 17.984375 C-12 18 -12 18 -15 17 C-17.6950779 12.55312147 -16.83012495 8.89773721 -16 4 C-15.01 3.67 -14.02 3.34 -13 3 C-13 2.34 -13 1.68 -13 1 C-10.69 1 -8.38 1 -6 1 C-6 1.66 -6 2.32 -6 3 C-5.01 3.33 -4.02 3.66 -3 4 C-3 4.66 -3 5.32 -3 6 C-6.3 5.67 -9.6 5.34 -13 5 C-13 8.3 -13 11.6 -13 15 C-8.545 14.505 -8.545 14.505 -4 14 C-4 13.01 -4 12.02 -4 11 C-5.98 11 -7.96 11 -10 11 C-10 10.34 -10 9.68 -10 9 C-6.7 9 -3.4 9 0 9 C0 6.03 0 3.06 0 0 Z " fill="#CCEFFE" transform="translate(56,97)"/>
<path d="M0 0 C15.16944809 0.61014424 15.16944809 0.61014424 21 4 C21.33 4.66 21.66 5.32 22 6 C23.64333504 7.03789581 25.31243867 8.03567924 27 9 C27.99 9.66 28.98 10.32 30 11 C30 12.65 30 14.3 30 16 C24.72 16 19.44 16 14 16 C14.66 15.67 15.32 15.34 16 15 C15.2236068 11.9254644 15.2236068 11.9254644 13 10 C13.33 8.02 13.66 6.04 14 4 C8.72 4 3.44 4 -2 4 C-0.68 3.67 0.64 3.34 2 3 C2 2.34 2 1.68 2 1 C1.34 0.67 0.68 0.34 0 0 Z " fill="#A4C4FB" transform="translate(44,8)"/>
<path d="M0 0 C3.3 0 6.6 0 10 0 C10 11.22 10 22.44 10 34 C15.94 33.67 21.88 33.34 28 33 C27.67 33.66 27.34 34.32 27 35 C23.25392317 36.06453262 19.62647926 36.13454798 15.75 36.125 C14.16445313 36.12886719 14.16445313 36.12886719 12.546875 36.1328125 C10 36 10 36 9 35 C8.91152257 32.47905924 8.88472699 29.98569107 8.90234375 27.46484375 C8.9037587 26.71159317 8.90517365 25.95834259 8.90663147 25.18226624 C8.91224624 22.7673044 8.92480117 20.35243399 8.9375 17.9375 C8.9425131 16.30403779 8.94707634 14.67057414 8.95117188 13.03710938 C8.96222046 9.02470415 8.97949494 5.01236759 9 1 C7.02 1.33 5.04 1.66 3 2 C2.67 14.87 2.34 27.74 2 41 C9.26 41.33 16.52 41.66 24 42 C24 42.33 24 42.66 24 43 C20.18751574 43.02887236 16.3750593 43.04675492 12.5625 43.0625 C11.47388672 43.07087891 10.38527344 43.07925781 9.26367188 43.08789062 C8.22919922 43.09111328 7.19472656 43.09433594 6.12890625 43.09765625 C5.17056885 43.10289307 4.21223145 43.10812988 3.22485352 43.11352539 C1 43 1 43 0 42 C-0.08874135 38.89748799 -0.11518455 35.8173188 -0.09765625 32.71484375 C-0.0962413 31.78402481 -0.09482635 30.85320587 -0.09336853 29.8941803 C-0.08775172 26.90858809 -0.0751964 23.92306971 -0.0625 20.9375 C-0.05748716 18.91862087 -0.05292388 16.89974057 -0.04882812 14.88085938 C-0.03777683 9.92054428 -0.02050095 4.96028468 0 0 Z " fill="#CEF5FE" transform="translate(14,49)"/>
<path d="M0 0 C0.72680969 0.00141495 1.45361938 0.0028299 2.20245361 0.00428772 C4.51521994 0.00986833 6.82788812 0.02241721 9.140625 0.03515625 C10.71223818 0.04017376 12.28385289 0.04473623 13.85546875 0.04882812 C17.70055843 0.0598314 21.5455751 0.07708264 25.390625 0.09765625 C25.390625 3.06765625 25.390625 6.03765625 25.390625 9.09765625 C24.41714111 9.1227124 23.44365723 9.14776855 22.44067383 9.17358398 C18.81571153 9.26802903 15.19092434 9.36815792 11.56616211 9.4699707 C9.99979764 9.51317964 8.43339033 9.55486416 6.86694336 9.5949707 C4.6103832 9.65301496 2.35403592 9.71660927 0.09765625 9.78125 C-0.59837204 9.79796249 -1.29440033 9.81467499 -2.01152039 9.83189392 C-5.64810297 9.94174044 -9.06729927 10.25487616 -12.609375 11.09765625 C-11.949375 10.10765625 -11.289375 9.11765625 -10.609375 8.09765625 C-7.98475256 7.83067737 -5.59871567 7.74932641 -2.9765625 7.8046875 C-1.84880905 7.81105476 -1.84880905 7.81105476 -0.69827271 7.81755066 C1.70672185 7.83436455 4.11088309 7.87202001 6.515625 7.91015625 C8.14451916 7.92519966 9.77342644 7.93888867 11.40234375 7.95117188 C15.39875934 7.98427671 19.39455082 8.03607616 23.390625 8.09765625 C23.390625 6.11765625 23.390625 4.13765625 23.390625 2.09765625 C11.510625 2.42765625 -0.369375 2.75765625 -12.609375 3.09765625 C-11.609375 1.09765625 -11.609375 1.09765625 -10.02246094 0.47875977 C-6.68007657 -0.04910972 -3.37360359 -0.02483227 0 0 Z " fill="#BCE6FE" transform="translate(84.609375,33.90234375)"/>
<path d="M0 0 C8.08978328 -0.48297214 8.08978328 -0.48297214 12.0625 1.625 C14 4 14 4 14.5 6.9375 C13.93791816 10.38025126 13.26853596 12.34033715 11 15 C8.3125 15.3125 8.3125 15.3125 6 15 C7.375 13.5 7.375 13.5 9 12 C9.66 12 10.32 12 11 12 C10.67 9.36 10.34 6.72 10 4 C7.69 3.34 5.38 2.68 3 2 C3 5.96 3 9.92 3 14 C3.66 14.33 4.32 14.66 5 15 C3.35 15.33 1.7 15.66 0 16 C0 10.72 0 5.44 0 0 Z " fill="#C8F2FE" transform="translate(18,99)"/>
<path d="M0 0 C1.99305794 -0.02446353 3.98563877 -0.08103298 5.97802734 -0.13818359 C13.75171744 -0.20892496 19.86778605 0.2426256 26.02880859 5.35009766 C26.52380859 6.34009766 26.52380859 6.34009766 27.02880859 7.35009766 C26.46033203 7.15673828 25.89185547 6.96337891 25.30615234 6.76416016 C24.14792969 6.37357422 24.14792969 6.37357422 22.96630859 5.97509766 C22.21220703 5.71986328 21.45810547 5.46462891 20.68115234 5.20166016 C19.80587891 4.92064453 18.93060547 4.63962891 18.02880859 4.35009766 C16.99755859 3.98916016 15.96630859 3.62822266 14.90380859 3.25634766 C9.89903909 2.08587737 5.20845306 2.13415729 0.09130859 2.22509766 C-1.3637207 2.23863281 -1.3637207 2.23863281 -2.84814453 2.25244141 C-5.22275547 2.27583659 -7.59683916 2.30861589 -9.97119141 2.35009766 C-10.30119141 3.67009766 -10.63119141 4.99009766 -10.97119141 6.35009766 C-10.22434082 6.36991699 -9.47749023 6.38973633 -8.70800781 6.41015625 C-5.33703536 6.50517977 -1.96670212 6.61495025 1.40380859 6.72509766 C2.57943359 6.75603516 3.75505859 6.78697266 4.96630859 6.81884766 C6.08779297 6.85751953 7.20927734 6.89619141 8.36474609 6.93603516 C9.92008057 6.9831665 9.92008057 6.9831665 11.50683594 7.03125 C14.02880859 7.35009766 14.02880859 7.35009766 16.02880859 9.35009766 C6.45880859 9.02009766 -3.11119141 8.69009766 -12.97119141 8.35009766 C-12.97119141 -2.47048987 -9.47236015 0.0849642 0 0 Z " fill="#C5F2FE" transform="translate(25.97119140625,34.64990234375)"/>
<path d="M0 0 C0.99 0 1.98 0 3 0 C4.35439668 2.70879335 4.06501451 5.00933268 4 8 C4.99 8 5.98 8 7 8 C7.33 5.36 7.66 2.72 8 0 C8.99 0 9.98 0 11 0 C11.28429935 4.26449021 10.3601264 7.31198 8.75 11.25 C8.12351562 12.83554688 8.12351562 12.83554688 7.484375 14.453125 C6 17 6 17 3.828125 17.859375 C3.22484375 17.90578125 2.6215625 17.9521875 2 18 C1.93941406 17.20335938 1.87882812 16.40671875 1.81640625 15.5859375 C1.20332134 7.75667303 1.20332134 7.75667303 0 0 Z " fill="#CAECFE" transform="translate(62,102)"/>
<path d="M0 0 C8.625 -0.25 8.625 -0.25 12 2 C12.29296875 4.6015625 12.29296875 4.6015625 12.1875 7.625 C12.16042969 8.62789062 12.13335937 9.63078125 12.10546875 10.6640625 C12.07066406 11.43492188 12.03585938 12.20578125 12 13 C11.01 13 10.02 13 9 13 C9 9.7 9 6.4 9 3 C7.02 3 5.04 3 3 3 C3 6.3 3 9.6 3 13 C2.01 13 1.02 13 0 13 C0 8.71 0 4.42 0 0 Z " fill="#C1E8FE" transform="translate(75,102)"/>
<path d="M0 0 C0.66 0.33 1.32 0.66 2 1 C2 1.99 2 2.98 2 4 C-0.64 3.67 -3.28 3.34 -6 3 C-6 5.31 -6 7.62 -6 10 C-3.36 9.67 -0.72 9.34 2 9 C2 9.99 2 10.98 2 12 C-5.625 13.25 -5.625 13.25 -9 11 C-9.3984375 8.90625 -9.3984375 8.90625 -9.375 6.5 C-9.38273437 5.7059375 -9.39046875 4.911875 -9.3984375 4.09375 C-9.26695313 3.4028125 -9.13546875 2.711875 -9 2 C-5.54337669 -0.30441554 -4.05142119 -0.25860135 0 0 Z " fill="#BDE6FE" transform="translate(98,102)"/>
<path d="M0 0 C2.8125 1.5 2.8125 1.5 5 3 C4.67 4.32 4.34 5.64 4 7 C-2.93 6.505 -2.93 6.505 -10 6 C-9.01 5.67 -8.02 5.34 -7 5 C-7.33 4.01 -7.66 3.02 -8 2 C-4.71662309 -0.18891794 -3.80441099 -0.45290607 0 0 Z " fill="#AAC9FC" transform="translate(63,26)"/>
<path d="M0 0 C0.66 0 1.32 0 2 0 C2.33 5.94 2.66 11.88 3 18 C3.66 18 4.32 18 5 18 C6.06775224 19.96466413 7.06553465 21.96855359 8 24 C7.67 24.66 7.34 25.32 7 26 C4.9375 26.625 4.9375 26.625 3 27 C2.690625 25.88625 2.38125 24.7725 2.0625 23.625 C1.17673517 20.2054845 1.17673517 20.2054845 0 18 C0.66 18 1.32 18 2 18 C1.67 17.2575 1.34 16.515 1 15.75 C-0.40324139 10.4878448 -0.15769562 5.4142163 0 0 Z " fill="#D3F0FE" transform="translate(52,57)"/>
<path d="M0 0 C0.99 0 1.98 0 3 0 C2.979375 0.94875 2.95875 1.8975 2.9375 2.875 C2.77448174 5.90666283 2.77448174 5.90666283 4 8 C2.06318839 8.08107583 0.1254066 8.13922475 -1.8125 8.1875 C-2.89144531 8.22230469 -3.97039063 8.25710937 -5.08203125 8.29296875 C-8 8 -8 8 -9.88671875 6.48828125 C-10.43779297 5.75158203 -10.43779297 5.75158203 -11 5 C-8.36 4.67 -5.72 4.34 -3 4 C-3.66 3.34 -4.32 2.68 -5 2 C-3.35 2 -1.7 2 0 2 C0 1.34 0 0.68 0 0 Z " fill="#BAD4FC" transform="translate(55,12)"/>
<path d="M0 0 C1.32 0 2.64 0 4 0 C4 5.94 4 11.88 4 18 C3.01 18 2.02 18 1 18 C0.67 12.06 0.34 6.12 0 0 Z " fill="#D5F4FE" transform="translate(33,97)"/>
<path d="M0 0 C2.97 0 5.94 0 9 0 C8.34 1.65 7.68 3.3 7 5 C10.63 5.33 14.26 5.66 18 6 C18.33 5.01 18.66 4.02 19 3 C18.01 2.67 17.02 2.34 16 2 C17.32 2 18.64 2 20 2 C20.042721 3.66611905 20.04063832 5.33382885 20 7 C19 8 19 8 16.9609375 8.1328125 C11.86453933 8.11741553 7.0226306 7.87350097 2 7 C2 6.01 2 5.02 2 4 C2.66 4 3.32 4 4 4 C4 3.34 4 2.68 4 2 C2.68 2 1.36 2 0 2 C0 1.34 0 0.68 0 0 Z " fill="#D8E6FD" transform="translate(49,26)"/>
<path d="M0 0 C0.33 0.66 0.66 1.32 1 2 C2.89533342 2.46523063 2.89533342 2.46523063 5.0625 2.625 C6.361875 2.74875 7.66125 2.8725 9 3 C9 3.66 9 4.32 9 5 C8.01 5.33 7.02 5.66 6 6 C6.33 6.66 6.66 7.32 7 8 C3.7 8.33 0.4 8.66 -3 9 C-3 8.34 -3 7.68 -3 7 C-1.35 7 0.3 7 2 7 C2 6.01 2 5.02 2 4 C-2.455 4.495 -2.455 4.495 -7 5 C-4.5 0 -4.5 0 0 0 Z " fill="#E8F0FD" transform="translate(46,9)"/>
<path d="M0 0 C-1.423125 0.928125 -1.423125 0.928125 -2.875 1.875 C-5.94445109 3.81970969 -5.94445109 3.81970969 -8 6 C-8.16687448 8.58354218 -8.16687448 8.58354218 -8 11 C-7.236875 10.505 -6.47375 10.01 -5.6875 9.5 C-3 8 -3 8 0 8 C-3.44615385 12.8 -3.44615385 12.8 -6.25 13.8125 C-6.8275 13.874375 -7.405 13.93625 -8 14 C-11.03617571 8.77777778 -11.03617571 8.77777778 -10.875 5.3125 C-9.91504004 2.77546296 -9.17252127 1.60927501 -7 0 C-3.98519175 -1.13055309 -3.16829698 -1.05609899 0 0 Z " fill="#B9E6FE" transform="translate(72,38)"/>
<path d="M0 0 C2.97 0 5.94 0 9 0 C7.46031746 6.15873016 7.46031746 6.15873016 6 8 C3.30061107 8.66794695 0.79623468 8.81959776 -2 9 C-2.33 8.34 -2.66 7.68 -3 7 C-0.03 6.34 2.94 5.68 6 5 C6 4.01 6 3.02 6 2 C4.02 2 2.04 2 0 2 C0 1.34 0 0.68 0 0 Z " fill="#BBE9FE" transform="translate(46,106)"/>
<path d="M0 0 C1.65 0 3.3 0 5 0 C3.68 0.33 2.36 0.66 1 1 C1 4.3 1 7.6 1 11 C2.32 11.33 3.64 11.66 5 12 C5.33 12.99 5.66 13.98 6 15 C3.03 15 0.06 15 -3 15 C-1.68 14.34 -0.36 13.68 1 13 C0.67 12.67 0.34 12.34 0 12 C-0.07244053 9.98035801 -0.08377188 7.95832876 -0.0625 5.9375 C-0.05347656 4.83277344 -0.04445313 3.72804688 -0.03515625 2.58984375 C-0.02355469 1.73519531 -0.01195312 0.88054687 0 0 Z " fill="#E3F8FE" transform="translate(21,101)"/>
<path d="M0 0 C0.391875 0.433125 0.78375 0.86625 1.1875 1.3125 C3.01796997 3.13582629 3.01796997 3.13582629 5.625 4.5625 C8 6 8 6 9 8 C6.36 8 3.72 8 1 8 C0.67 5.36 0.34 2.72 0 0 Z " fill="#BCD3FC" transform="translate(63,11)"/>
<path d="M0 0 C3.3 0.66 6.6 1.32 10 2 C10 2.66 10 3.32 10 4 C4.06 4.495 4.06 4.495 -2 5 C-2.33 4.01 -2.66 3.02 -3 2 C-2.01 2 -1.02 2 0 2 C0 1.34 0 0.68 0 0 Z " fill="#EBF2FE" transform="translate(44,18)"/>
<path d="M0 0 C2.27141109 0.11402064 4.54214552 0.24158505 6.8125 0.375 C8.07707031 0.44460938 9.34164062 0.51421875 10.64453125 0.5859375 C14 1 14 1 17 3 C16.38253906 2.98839844 15.76507813 2.97679687 15.12890625 2.96484375 C9.32474456 2.90300337 3.75661912 3.25721044 -2 4 C-0.68 3.67 0.64 3.34 2 3 C2 2.34 2 1.68 2 1 C1.34 0.67 0.68 0.34 0 0 Z " fill="#C3DAFC" transform="translate(44,8)"/>
<path d="M0 0 C0.66 0 1.32 0 2 0 C2.99 2.97 3.98 5.94 5 9 C4.01 9.66 3.02 10.32 2 11 C1.46770674 9.73392393 0.94955456 8.46189588 0.4375 7.1875 C0.14746094 6.47980469 -0.14257812 5.77210937 -0.44140625 5.04296875 C-1 3 -1 3 0 0 Z " fill="#EBF7FE" transform="translate(59,43)"/>
<path d="M0 0 C0.66 0 1.32 0 2 0 C2 3.63 2 7.26 2 11 C1.34 10.01 0.68 9.02 0 8 C-0.99 8.495 -0.99 8.495 -2 9 C-1.34 6.03 -0.68 3.06 0 0 Z " fill="#ECFAFF" transform="translate(32,104)"/>
<path d="M0 0 C5.29441695 -0.50423019 7.81413519 0.81076967 12 4 C10 5 10 5 7.6171875 4.22265625 C6.71226563 3.83980469 5.80734375 3.45695312 4.875 3.0625 C3.50988281 2.49208984 3.50988281 2.49208984 2.1171875 1.91015625 C1.41851562 1.60980469 0.71984375 1.30945312 0 1 C0 0.67 0 0.34 0 0 Z " fill="#BDEBFE" transform="translate(41,37)"/>
<path d="M0 0 C0.99 0.33 1.98 0.66 3 1 C3 1.66 3 2.32 3 3 C1.35 3 -0.3 3 -2 3 C-2 3.66 -2 4.32 -2 5 C-4.86724686 4.42655063 -5.8614515 4.1385485 -8 2 C-5.36 1.67 -2.72 1.34 0 1 C0 0.67 0 0.34 0 0 Z " fill="#D1E2FC" transform="translate(52,15)"/>
<path d="M0 0 C2.97 0.33 5.94 0.66 9 1 C7 3 7 3 3.875 3.125 C2.451875 3.063125 2.451875 3.063125 1 3 C0.67 2.01 0.34 1.02 0 0 Z " fill="#F3F7FE" transform="translate(63,25)"/>
<path d="M0 0 C0.99 0 1.98 0 3 0 C2.34 2.97 1.68 5.94 1 9 C0.01 8.67 -0.98 8.34 -2 8 C-1.34 5.36 -0.68 2.72 0 0 Z " fill="#AEE1FE" transform="translate(66,111)"/>
<path d="M0 0 C2 1 2 1 2.6328125 2.84765625 C2.79523437 3.57855469 2.95765625 4.30945313 3.125 5.0625 C3.29257812 5.79597656 3.46015625 6.52945313 3.6328125 7.28515625 C3.75398438 7.85105469 3.87515625 8.41695312 4 9 C1 8 1 8 -0.1875 5.9375 C-0.455625 5.298125 -0.72375 4.65875 -1 4 C-0.34 4 0.32 4 1 4 C0.67 2.68 0.34 1.36 0 0 Z " fill="#EEF9FE" transform="translate(53,71)"/>
<path d="M0 0 C3.63 0.66 7.26 1.32 11 2 C7.41220825 2.89694794 4.65381163 3.08304117 1 3 C0.67 2.01 0.34 1.02 0 0 Z " fill="#E0ECFD" transform="translate(41,6)"/>
</svg>
