<svg xmlns="http://www.w3.org/2000/svg" version="1.1" xmlns:xlink="http://www.w3.org/1999/xlink" xmlns:svgjs="http://svgjs.dev/svgjs" width="2000" height="1500" viewBox="0 0 2000 1500"><rect width="2000" height="1500" fill="#dedede"></rect><g transform="matrix(0.75,0,0,0.75,249.090909090909,541.492476790477)"><svg viewBox="0 0 396 110" data-background-color="#dedede" preserveAspectRatio="xMidYMid meet" height="555" width="2000" xmlns="http://www.w3.org/2000/svg" xmlns:xlink="http://www.w3.org/1999/xlink"><g id="tight-bounds" transform="matrix(1,0,0,1,0.2400000000000091,0.10108721452860436)"><svg viewBox="0 0 395.52 109.7978255709428" height="109.7978255709428" width="395.52"><g><svg viewBox="0 0 567.1646867350372 157.4470300974212" height="109.7978255709428" width="395.52"><g transform="matrix(1,0,0,1,171.64468673503723,48.65341762750715)"><svg viewBox="0 0 395.52 60.14019484240688" height="60.14019484240688" width="395.52"><g id="textblocktransform"><svg viewBox="0 0 395.52 60.14019484240688" height="60.14019484240688" width="395.52" id="textblock"><g><svg viewBox="0 0 395.52 60.14019484240688" height="60.14019484240688" width="395.52"><g transform="matrix(1,0,0,1,0,0)"><svg width="395.52" viewBox="0.65 -39.45 261.73 39.800000000000004" height="60.14019484240688" data-palette-color="#374151"><path d="M17.95-28.05L17.95-19.9 13.55-19.9 13.55 0 3.7 0 3.7-19.9 0.65-19.9 0.65-28.05 3.7-28.05 3.7-28.3Q3.7-33.7 6.88-36.58 10.05-39.45 16-39.45L16-39.45Q17.2-39.45 17.85-39.4L17.85-39.4 17.85-31.05Q17.45-31.1 16.75-31.1L16.75-31.1Q15.15-31.1 14.4-30.38 13.65-29.65 13.55-28.05L13.55-28.05 17.95-28.05ZM34.5 0.35Q30.3 0.35 26.97-1.4 23.65-3.15 21.75-6.4 19.85-9.65 19.85-14.05L19.85-14.05Q19.85-18.4 21.77-21.65 23.7-24.9 27.02-26.65 30.35-28.4 34.55-28.4L34.55-28.4Q38.75-28.4 42.07-26.65 45.4-24.9 47.32-21.65 49.25-18.4 49.25-14.05L49.25-14.05Q49.25-9.7 47.32-6.43 45.4-3.15 42.05-1.4 38.7 0.35 34.5 0.35L34.5 0.35ZM34.5-8.15Q36.55-8.15 37.92-9.68 39.3-11.2 39.3-14.05L39.3-14.05Q39.3-16.9 37.92-18.4 36.55-19.9 34.55-19.9L34.55-19.9Q32.55-19.9 31.2-18.4 29.85-16.9 29.85-14.05L29.85-14.05Q29.85-11.15 31.15-9.65 32.45-8.15 34.5-8.15L34.5-8.15ZM72.1-28.05L81.95-28.05 81.95 0 72.1 0 72.1-4Q70.85-2.1 68.65-0.93 66.45 0.25 63.6 0.25L63.6 0.25Q58.7 0.25 55.87-2.98 53.05-6.2 53.05-11.75L53.05-11.75 53.05-28.05 62.8-28.05 62.8-13Q62.8-10.6 64.07-9.22 65.35-7.85 67.45-7.85L67.45-7.85Q69.6-7.85 70.85-9.22 72.1-10.6 72.1-13L72.1-13 72.1-28.05ZM97.34-23.1Q98.99-25.5 101.34-26.9 103.69-28.3 106.39-28.3L106.39-28.3 106.39-17.85 103.64-17.85Q100.44-17.85 98.89-16.6 97.34-15.35 97.34-12.25L97.34-12.25 97.34 0 87.54 0 87.54-28.05 97.34-28.05 97.34-23.1ZM123.59-8.35L126.44-8.35 126.44 0 122.19 0Q111.44 0 111.44-10.65L111.44-10.65 111.44-19.9 107.99-19.9 107.99-28.05 111.44-28.05 111.44-34.85 121.29-34.85 121.29-28.05 126.39-28.05 126.39-19.9 121.29-19.9 121.29-10.5Q121.29-9.35 121.81-8.85 122.34-8.35 123.59-8.35L123.59-8.35ZM149.39-28.3Q154.19-28.3 157.01-25.08 159.84-21.85 159.84-16.35L159.84-16.35 159.84 0 150.04 0 150.04-15.05Q150.04-17.45 148.79-18.82 147.54-20.2 145.44-20.2L145.44-20.2Q143.24-20.2 141.99-18.82 140.74-17.45 140.74-15.05L140.74-15.05 140.74 0 130.94 0 130.94-37 140.74-37 140.74-24.05Q142.04-25.95 144.26-27.13 146.49-28.3 149.39-28.3L149.39-28.3ZM186.73 0.35Q182.93 0.35 179.96-0.93 176.98-2.2 175.26-4.42 173.53-6.65 173.33-9.45L173.33-9.45 182.83-9.45Q183.03-8.1 184.08-7.35 185.13-6.6 186.68-6.6L186.68-6.6Q187.88-6.6 188.58-7.1 189.28-7.6 189.28-8.4L189.28-8.4Q189.28-9.45 188.13-9.95 186.98-10.45 184.33-11.05L184.33-11.05Q181.33-11.65 179.33-12.4 177.33-13.15 175.86-14.85 174.38-16.55 174.38-19.45L174.38-19.45Q174.38-21.95 175.73-23.98 177.08-26 179.71-27.2 182.33-28.4 186.03-28.4L186.03-28.4Q191.53-28.4 194.68-25.7 197.83-23 198.33-18.6L198.33-18.6 189.48-18.6Q189.23-19.95 188.31-20.68 187.38-21.4 185.83-21.4L185.83-21.4Q184.63-21.4 184.01-20.95 183.38-20.5 183.38-19.7L183.38-19.7Q183.38-18.7 184.53-18.18 185.68-17.65 188.23-17.1L188.23-17.1Q191.28-16.45 193.31-15.65 195.33-14.85 196.86-13.08 198.38-11.3 198.38-8.25L198.38-8.25Q198.38-5.8 196.96-3.85 195.53-1.9 192.91-0.78 190.28 0.35 186.73 0.35L186.73 0.35ZM229.98-14.35Q229.98-13.2 229.83-12.05L229.83-12.05 211.28-12.05Q211.43-9.75 212.56-8.63 213.68-7.5 215.43-7.5L215.43-7.5Q217.88-7.5 218.93-9.7L218.93-9.7 229.38-9.7Q228.73-6.8 226.86-4.53 224.98-2.25 222.13-0.95 219.28 0.35 215.83 0.35L215.83 0.35Q211.68 0.35 208.46-1.4 205.23-3.15 203.41-6.4 201.58-9.65 201.58-14.05L201.58-14.05Q201.58-18.45 203.38-21.68 205.18-24.9 208.41-26.65 211.63-28.4 215.83-28.4L215.83-28.4Q219.98-28.4 223.18-26.7 226.38-25 228.18-21.83 229.98-18.65 229.98-14.35L229.98-14.35ZM211.33-16.8L219.98-16.8Q219.98-18.6 218.78-19.63 217.58-20.65 215.78-20.65L215.78-20.65Q213.98-20.65 212.83-19.68 211.68-18.7 211.33-16.8L211.33-16.8ZM232.38-14.05Q232.38-18.4 233.95-21.65 235.53-24.9 238.25-26.65 240.98-28.4 244.33-28.4L244.33-28.4Q247.23-28.4 249.33-27.25 251.43-26.1 252.58-24.15L252.58-24.15 252.58-28.05 262.38-28.05 262.38 0 252.58 0 252.58-3.9Q251.43-1.95 249.3-0.8 247.18 0.35 244.33 0.35L244.33 0.35Q240.98 0.35 238.25-1.4 235.53-3.15 233.95-6.43 232.38-9.7 232.38-14.05L232.38-14.05ZM252.58-14.05Q252.58-16.75 251.1-18.3 249.63-19.85 247.48-19.85L247.48-19.85Q245.28-19.85 243.83-18.32 242.38-16.8 242.38-14.05L242.38-14.05Q242.38-11.35 243.83-9.78 245.28-8.2 247.48-8.2L247.48-8.2Q249.63-8.2 251.1-9.75 252.58-11.3 252.58-14.05L252.58-14.05Z" opacity="1" transform="matrix(1,0,0,1,0,0)" fill="#374151" class="wordmark-text-0" data-fill-palette-color="primary" id="text-0"></path></svg></g></svg></g></svg></g></svg></g><g><svg viewBox="0 0 157.4470300974212 157.4470300974212" height="157.4470300974212" width="157.4470300974212"><g><svg xmlns="http://www.w3.org/2000/svg" xmlns:xlink="http://www.w3.org/1999/xlink" version="1.1" x="0" y="0" viewBox="5 5 90 90" enable-background="new 0 0 100 100" xml:space="preserve" height="157.4470300974212" width="157.4470300974212" class="icon-icon-0" data-fill-palette-color="accent" id="icon-0"><path d="M50 5C25.2 5 5 25.2 5 50c0 24.8 20.2 45 45 45 24.8 0 45-20.2 45-45C95 25.2 74.8 5 50 5L50 5zM72.3 45.5c-0.4-11-2.6-20.5-6.2-27.6 10.5 5.3 18 15.5 19.5 27.6H72.3zM33.8 17.9C30.3 25 28 34.5 27.6 45.5H14.3C15.9 33.4 23.4 23.2 33.8 17.9L33.8 17.9zM27.7 54.5c0.6 11.3 3.2 21.1 7.3 28.1-11.1-5-19-15.6-20.7-28.1H27.7zM50 84.5c-5.1 0-12.2-11.3-13.3-30h26.6C62.1 73.3 55.1 84.5 50 84.5L50 84.5zM36.6 45.5C37.4 25.9 44.7 14 50 14c5.3 0 12.5 11.9 13.4 31.5H36.6zM65 82.6c4-7 6.7-16.8 7.2-28.1h13.4C84 67 76 77.6 65 82.6z" fill="#374151" data-fill-palette-color="accent"></path></svg></g></svg></g></svg></g><defs></defs></svg><rect width="395.52" height="109.7978255709428" fill="none" stroke="none" visibility="hidden"></rect></g></svg></g></svg>