<?xml version="1.0" standalone="no"?>
<!DOCTYPE svg PUBLIC "-//W3C//DTD SVG 20010904//EN"
 "http://www.w3.org/TR/2001/REC-SVG-20010904/DTD/svg10.dtd">
<svg version="1.0" xmlns="http://www.w3.org/2000/svg"
 width="183.000000pt" height="81.000000pt" viewBox="0 0 183.000000 81.000000"
 preserveAspectRatio="xMidYMid meet">

<g transform="translate(0.000000,81.000000) scale(0.100000,-0.100000)"
fill="#000000" stroke="none">
<path d="M652 653 c-39 -71 -88 -157 -109 -193 -37 -64 -37 -65 -9 -47 15 10
35 15 45 12 11 -3 48 6 83 20 l63 25 113 -45 c61 -25 115 -45 118 -45 4 0 -24
25 -62 56 -96 78 -102 84 -76 78 14 -4 24 1 32 16 9 18 5 32 -28 93 -75 136
-87 157 -93 157 -3 0 -37 -57 -77 -127z"/>
<path d="M442 268 c-2 -59 -10 -70 -32 -43 -15 18 -79 19 -102 1 -43 -32 -42
-123 2 -146 35 -19 95 -12 119 14 20 21 21 31 18 127 -1 57 -4 78 -5 47z m-27
-63 c14 -13 25 -36 25 -50 0 -34 -42 -75 -76 -75 -68 0 -100 88 -48 129 35 28
69 26 99 -4z"/>
<path d="M1365 300 c-4 -6 -3 -16 3 -22 6 -6 12 -6 17 2 4 6 3 16 -3 22 -6 6
-12 6 -17 -2z"/>
<path d="M1010 202 c0 -115 10 -136 63 -136 40 0 67 18 67 45 0 25 -16 24 -23
-1 -7 -26 -33 -35 -63 -22 -22 10 -24 18 -24 72 l0 60 50 0 c28 0 50 5 50 10
0 6 -22 10 -50 10 -49 0 -50 1 -50 30 0 17 -4 30 -10 30 -6 0 -10 -39 -10 -98z"/>
<path d="M1685 242 c-32 -7 -45 -22 -45 -53 0 -29 4 -31 68 -44 37 -8 50 -28
32 -50 -16 -19 -54 -19 -74 0 -22 22 -39 20 -26 -4 23 -44 121 -31 128 17 5
32 -13 49 -59 57 -46 8 -61 31 -34 51 26 19 41 17 64 -7 10 -11 21 -17 24 -12
14 23 -40 53 -78 45z"/>
<path d="M85 215 c-34 -33 -34 -93 -2 -123 30 -29 89 -30 117 -2 20 20 20 20
20 0 0 -11 5 -20 11 -20 8 0 10 20 7 62 -4 51 -9 65 -32 85 -37 31 -89 31
-121 -2z m112 -7 c48 -45 14 -128 -53 -128 -23 0 -38 8 -53 26 -28 35 -26 69
4 99 30 31 71 32 102 3z"/>
<path d="M517 222 c-13 -14 -17 -36 -15 -88 l1 -69 6 68 c5 52 11 72 25 83 51
37 86 3 86 -84 0 -35 4 -62 10 -62 6 0 10 28 10 64 0 68 14 96 49 96 34 0 51
-33 51 -98 0 -35 4 -62 10 -62 17 0 12 123 -6 148 -18 27 -74 30 -99 6 -15
-15 -17 -15 -34 0 -24 21 -74 20 -94 -2z"/>
<path d="M823 218 c-30 -33 -36 -62 -19 -101 19 -47 69 -65 119 -44 36 16 57
37 35 37 -7 0 -22 -7 -32 -15 -29 -22 -64 -18 -91 10 -40 39 -32 45 61 45 74
0 85 2 80 16 -3 9 -6 20 -6 24 0 5 -10 18 -22 30 -31 29 -98 27 -125 -2z m114
-14 c14 -14 23 -27 22 -29 -2 -2 -36 -4 -74 -6 -75 -2 -85 8 -43 44 29 24 65
21 95 -9z"/>
<path d="M1196 218 c-18 -25 -23 -148 -6 -148 6 0 10 28 10 65 0 58 3 66 25
81 32 21 75 6 75 -26 0 -11 5 -20 10 -20 16 0 12 37 -6 54 -24 25 -90 21 -108
-6z"/>
<path d="M1370 155 c0 -50 4 -85 10 -85 6 0 10 35 10 85 0 50 -4 85 -10 85 -6
0 -10 -35 -10 -85z"/>
<path d="M1453 218 c-30 -33 -36 -62 -19 -101 23 -57 100 -72 149 -29 9 8 17
22 17 29 0 10 -9 7 -31 -11 -47 -40 -89 -34 -115 16 -31 59 27 122 89 99 15
-6 30 -18 33 -26 8 -19 24 -20 24 -1 0 46 -111 63 -147 24z"/>
</g>
</svg>
