<?xml version="1.0" standalone="no"?>
<!DOCTYPE svg PUBLIC "-//W3C//DTD SVG 20010904//EN"
 "http://www.w3.org/TR/2001/REC-SVG-20010904/DTD/svg10.dtd">
<svg version="1.0" xmlns="http://www.w3.org/2000/svg"
 width="200.000000pt" height="200.000000pt" viewBox="0 0 200.000000 200.000000"
 preserveAspectRatio="xMidYMid meet">

<g transform="translate(0.000000,200.000000) scale(0.100000,-0.100000)"
fill="#000000" stroke="none">
<path d="M0 1000 l0 -130 35 0 35 0 0 50 0 50 39 0 c35 0 43 -5 77 -50 34 -45
42 -50 76 -50 41 0 48 10 23 30 -9 7 -25 26 -36 41 l-19 28 25 25 c26 26 32
64 15 96 -15 28 -65 40 -171 40 l-99 0 0 -130z m188 74 c16 -5 22 -13 20 -28
-3 -19 -10 -21 -70 -24 l-68 -3 0 31 c0 29 1 30 48 30 26 0 57 -3 70 -6z"/>
<path d="M360 1000 l0 -130 130 0 130 0 0 25 c0 24 -2 24 -92 27 l-93 3 -3 28
-3 27 90 0 c90 0 91 0 91 25 0 25 -1 25 -91 25 -88 0 -90 1 -87 23 3 21 8 22
96 25 90 3 92 3 92 27 l0 25 -130 0 -130 0 0 -130z"/>
<path d="M690 1000 l0 -130 35 0 c34 0 35 1 35 40 l0 40 69 0 c118 0 151 22
151 99 0 36 -4 44 -32 61 -28 17 -51 20 -145 20 l-113 0 0 -130z m224 53 c12
-30 -14 -43 -85 -43 l-69 0 0 28 c0 16 2 31 4 33 2 2 36 3 74 1 52 -3 72 -8
76 -19z"/>
<path d="M1050 1000 l0 -130 30 0 c28 0 30 2 30 40 l0 40 73 0 c90 0 138 21
150 66 11 39 -7 83 -43 101 -15 8 -66 13 -132 13 l-108 0 0 -130z m206 70 c7
-1 12 -33 8 -45 -5 -11 -24 -15 -80 -15 l-74 0 0 28 c0 16 3 32 8 36 5 6 75 4
138 -4z"/>
<path d="M1400 1000 l0 -131 33 3 32 3 0 125 0 125 -32 3 -33 3 0 -131z"/>
<path d="M1550 1000 l0 -130 35 0 35 0 0 87 0 88 88 -88 c79 -78 91 -87 125
-87 l37 0 0 130 0 130 -35 0 -35 0 0 -85 c0 -47 -2 -85 -5 -85 -2 0 -41 38
-86 85 -75 78 -85 85 -120 85 l-39 0 0 -130z"/>
<path d="M1937 1113 c-20 -72 -19 -75 10 -71 23 2 29 10 39 46 l13 42 -29 0
c-19 0 -30 -6 -33 -17z"/>
</g>
</svg>
