<?xml version="1.0" standalone="no"?>
<!DOCTYPE svg PUBLIC "-//W3C//DTD SVG 20010904//EN"
 "http://www.w3.org/TR/2001/REC-SVG-20010904/DTD/svg10.dtd">
<svg version="1.0" xmlns="http://www.w3.org/2000/svg"
 width="500.000000pt" height="240.000000pt" viewBox="0 0 500.000000 240.000000"
 preserveAspectRatio="xMidYMid meet">

<g transform="translate(0.000000,240.000000) scale(0.100000,-0.100000)"
fill="#000000" stroke="none">
<path d="M2724 1719 c-5 -7 -55 -106 -110 -219 l-102 -205 -103 213 c-74 151
-108 212 -119 210 -12 -3 -19 -48 -37 -238 -28 -300 -28 -280 1 -280 29 0 30
6 47 218 7 83 15 152 18 152 3 -1 46 -86 95 -190 49 -105 92 -190 96 -190 13
0 24 21 110 202 46 98 86 176 88 173 2 -2 11 -84 20 -182 15 -158 19 -178 36
-181 10 -2 22 0 26 5 10 10 -36 503 -48 515 -6 6 -13 5 -18 -3z"/>
<path d="M1410 1693 c-28 -62 -200 -477 -200 -485 0 -4 11 -8 24 -8 19 0 28 8
37 35 l13 35 146 0 146 0 17 -35 c16 -34 57 -50 57 -22 1 24 -205 507 -216
507 -6 0 -17 -12 -24 -27z m85 -222 c30 -74 55 -137 55 -142 0 -5 -54 -9 -120
-9 -66 0 -120 2 -120 4 0 2 32 79 106 255 8 19 16 32 19 29 2 -2 29 -64 60
-137z"/>
<path d="M3629 1673 c-69 -160 -189 -453 -189 -462 0 -6 11 -11 24 -11 19 0
27 8 36 35 l12 35 148 0 148 0 12 -35 c9 -27 17 -35 36 -35 13 0 24 6 24 13
-1 25 -205 501 -217 505 -8 2 -22 -16 -34 -45z m88 -191 c29 -70 55 -135 59
-144 6 -17 -4 -18 -116 -18 -112 0 -122 1 -116 18 23 62 112 272 116 272 3 0
29 -58 57 -128z"/>
<path d="M694 1697 c-2 -7 -3 -120 -2 -252 l3 -240 23 -3 c21 -3 22 -1 22 82
l0 86 160 0 159 0 3 -82 c3 -81 4 -83 28 -83 l25 0 0 250 0 250 -25 0 -25 0
-3 -143 -3 -143 -157 3 -157 3 -3 143 c-2 135 -4 142 -23 142 -11 0 -22 -6
-25 -13z"/>
<path d="M1757 1704 c-4 -4 -7 -119 -7 -256 l0 -248 25 0 c24 0 25 3 25 60 l0
60 84 0 c46 0 91 3 100 6 12 5 24 -10 47 -60 25 -54 35 -66 55 -66 31 0 30 7
-6 87 l-30 66 34 38 c77 84 57 222 -42 290 -32 22 -48 24 -156 27 -67 2 -124
0 -129 -4z m242 -62 c97 -49 106 -181 18 -246 -21 -16 -47 -21 -122 -24 l-95
-4 0 146 0 146 83 0 c58 0 92 -5 116 -18z"/>
<path d="M2900 1455 l0 -256 23 3 22 3 0 250 0 250 -22 3 -23 3 0 -256z"/>
<path d="M3075 1698 c-3 -7 -4 -121 -3 -253 l3 -240 155 0 c148 0 155 1 155
20 0 19 -8 20 -127 23 l-128 3 -2 227 -3 227 -23 3 c-12 2 -24 -3 -27 -10z"/>
<path d="M3980 1455 l0 -255 25 0 c23 0 25 3 25 50 l0 50 63 0 c82 0 153 34
193 92 25 36 29 50 29 114 0 64 -3 77 -30 115 -47 67 -99 89 -212 89 l-93 0 0
-255z m206 189 c77 -36 109 -146 62 -213 -39 -57 -69 -73 -147 -79 l-71 -5 0
157 0 156 61 0 c36 0 75 -7 95 -16z"/>
<path d="M1070 800 l0 -180 99 0 c92 0 102 2 130 26 27 22 31 32 31 74 0 38
-5 53 -26 73 -24 25 -25 27 -10 49 16 23 21 64 10 93 -12 30 -60 45 -149 45
l-85 0 0 -180z m183 149 c29 -16 37 -28 37 -60 0 -45 -32 -64 -121 -68 l-79
-3 0 71 0 71 71 0 c39 0 80 -5 92 -11z m34 -171 c30 -28 31 -83 1 -115 -19
-21 -30 -23 -110 -23 l-88 0 0 80 0 80 87 0 c75 0 90 -3 110 -22z"/>
<path d="M1525 957 c-101 -57 -123 -188 -47 -279 34 -40 78 -58 142 -58 57 0
93 15 132 57 68 72 62 189 -14 260 -52 49 -146 58 -213 20z m165 -12 c16 -8
42 -32 57 -52 36 -48 40 -135 7 -180 -36 -49 -82 -73 -138 -73 -83 0 -146 54
-162 138 -7 37 17 110 44 135 52 47 136 61 192 32z"/>
<path d="M1910 852 c0 -105 3 -133 19 -162 50 -94 196 -98 251 -7 17 27 20 51
20 165 0 81 -4 132 -10 132 -6 0 -10 -50 -10 -129 0 -117 -2 -131 -23 -162
-13 -19 -39 -40 -61 -48 -52 -20 -111 0 -143 48 -21 31 -23 45 -23 162 0 79
-4 129 -10 129 -6 0 -10 -49 -10 -128z"/>
<path d="M2300 970 c0 -5 26 -10 58 -12 l57 -3 3 -167 c1 -101 6 -168 12 -168
6 0 10 66 10 170 l0 170 55 0 c30 0 55 5 55 10 0 6 -48 10 -125 10 -72 0 -125
-4 -125 -10z"/>
<path d="M2660 800 c0 -113 4 -180 10 -180 6 0 10 67 10 180 0 113 -4 180 -10
180 -6 0 -10 -67 -10 -180z"/>
<path d="M2885 958 c-138 -81 -116 -287 36 -332 39 -12 44 -17 47 -45 4 -42
22 -40 22 4 0 29 4 35 20 35 47 0 119 59 139 113 27 71 -1 165 -64 213 -52 40
-142 45 -200 12z m165 -13 c16 -8 42 -32 57 -52 36 -48 40 -135 7 -180 -36
-49 -82 -73 -138 -73 -83 0 -146 54 -162 138 -7 37 17 110 44 135 52 47 136
61 192 32z"/>
<path d="M3270 853 c0 -102 4 -135 18 -163 47 -94 197 -98 252 -7 17 27 20 51
20 165 0 81 -4 132 -10 132 -6 0 -10 -50 -10 -129 0 -117 -2 -131 -23 -162
-13 -19 -39 -40 -61 -48 -52 -20 -111 0 -143 48 -21 31 -23 45 -23 162 0 79
-4 129 -10 129 -6 0 -10 -49 -10 -127z"/>
<path d="M3690 800 l0 -180 130 0 c80 0 130 4 130 10 0 6 -47 10 -121 10
l-120 0 3 53 3 52 93 3 c122 4 120 22 -3 22 l-95 0 0 95 0 95 115 0 c70 0 115
4 115 10 0 6 -48 10 -125 10 l-125 0 0 -180z"/>
</g>
</svg>
