<?xml version="1.0" standalone="no"?>
<!DOCTYPE svg PUBLIC "-//W3C//DTD SVG 20010904//EN"
 "http://www.w3.org/TR/2001/REC-SVG-20010904/DTD/svg10.dtd">
<svg version="1.0" xmlns="http://www.w3.org/2000/svg"
 width="205.000000pt" height="145.000000pt" viewBox="0 0 205.000000 145.000000"
 preserveAspectRatio="xMidYMid meet">

<g transform="translate(0.000000,145.000000) scale(0.100000,-0.100000)"
fill="#000000" stroke="none">
<path d="M458 575 c2 -58 7 -105 12 -105 5 0 10 37 12 83 l3 82 55 -82 c30
-46 60 -83 67 -83 10 0 13 26 13 105 0 89 -2 105 -16 105 -13 0 -15 -12 -12
-80 2 -44 0 -80 -4 -80 -3 0 -29 36 -57 80 -29 44 -57 80 -64 80 -9 0 -11 -28
-9 -105z"/>
</g>
</svg>
