<svg xmlns="http://www.w3.org/2000/svg" version="1.1" xmlns:xlink="http://www.w3.org/1999/xlink" xmlns:svgjs="http://svgjs.dev/svgjs" width="2000" height="434" viewBox="0 0 2000 434"><g transform="matrix(1,0,0,1,-1.212110628184746,0.8138856697388235)"><svg viewBox="0 0 396 86" data-background-color="#ffffff" preserveAspectRatio="xMidYMid meet" height="434" width="2000" xmlns="http://www.w3.org/2000/svg" xmlns:xlink="http://www.w3.org/1999/xlink"><g id="tight-bounds" transform="matrix(1,0,0,1,0.23999804224331456,-0.1612764555867443)"><svg viewBox="0 0 395.52 86.32255333945204" height="86.32255333945204" width="395.52"><g><svg viewBox="0 0 563.5050231553024 122.98541772444568" height="86.32255333945204" width="395.52"><g transform="matrix(1,0,0,1,167.9850231553024,16.997261060324988)"><svg viewBox="0 0 395.52 88.9908956037957" height="88.9908956037957" width="395.52"><g><svg viewBox="0 0 395.52 88.9908956037957" height="88.9908956037957" width="395.52"><g><svg viewBox="0 0 395.52 54.04685059864653" height="54.04685059864653" width="395.52"><g transform="matrix(1,0,0,1,0,0)"><svg width="395.52" viewBox="0.6500000357627869 -25.799999237060547 192.0800018310547 26.25" height="54.04685059864653" data-palette-color="#000000"><path d="M18.1-25.4L25.8 0 18.2 0 17.5-4.05 17.4-4.45 12.75-4.55 8.75-4.45 8 0 0.65 0 9.1-25.4 18.1-25.4ZM13.2-10L15.95-10.05 13.7-18.65 13.25-18.65 10.5-10.05 13.2-10ZM46.85-9.95Q49.2-6.4 52.9-1.75L52.9-1.75 52.8-0.9Q48.95 0.25 45.5 0.45L45.5 0.45 44.45-0.3Q42.35-4.15 40.6-7.75L40.6-7.75 37.3-7.75 37.6 0 30.1 0 30.45-7.45 30.1-25.4 42.15-25.45Q46.6-25.45 49-23.43 51.4-21.4 51.4-17.65L51.4-17.65Q51.4-15.35 50.2-13.35 49-11.35 46.85-9.95L46.85-9.95ZM43.45-16.9Q43.45-18.55 42.52-19.3 41.6-20.05 39.55-20.15L39.55-20.15 37.6-20 37.45-13.3 40.8-13.1Q42.2-13.6 42.82-14.53 43.45-15.45 43.45-16.9L43.45-16.9ZM68.2-25.8Q71.95-25.8 75.09-24.7L75.09-24.7 73.8-18.55 73.25-18.25Q72.15-18.9 70.67-19.3 69.2-19.7 67.8-19.7L67.8-19.7Q65.09-19.7 63.8-18.2 62.5-16.7 62.5-13.3L62.5-13.3Q62.5-9.45 63.92-7.63 65.34-5.8 68.25-5.8L68.25-5.8Q69.59-5.8 71.12-6.1 72.65-6.4 73.8-6.9L73.8-6.9 74.45-6.5 73.8-0.4Q70.95 0.45 67.7 0.45L67.7 0.45Q61.25 0.45 57.92-2.88 54.6-6.2 54.6-12.45L54.6-12.45Q54.6-18.85 58.15-22.33 61.7-25.8 68.2-25.8L68.2-25.8ZM103.04-25.4L102.64-8.2 102.89 0 95.39 0 95.74-7.45 95.69-9.55 90.69-9.6 86.29-9.5 86.24-8.2 86.54 0 79.04 0 79.39-7.45 79.04-25.4 86.69-25.4 86.44-15.7 91.14-15.6 95.59-15.7 95.39-25.4 103.04-25.4ZM117.09-25.4L116.64-8.2 116.94 0 109.44 0 109.79-7.45 109.44-25.4 117.09-25.4ZM141.64-25.4L142.04-24.85 141.59-19.25 136.29-19.55 135.39-19.55 135.19-8.2 135.49 0 127.99 0 128.34-7.45 128.14-19.55 127.24-19.55 121.84-19.25 121.34-19.8 121.79-25.4 141.64-25.4ZM157.44-5.8L164.34-6.05 164.78-5.55 164.28 0 145.94 0 146.28-7.45 145.94-25.4 164.53-25.4 164.99-24.85 164.49-19.35 157.88-19.6 153.44-19.6 153.34-15.7 157.63-15.7 161.99-15.85 162.38-15.3 161.94-9.75 157.13-9.9 153.19-9.85 153.13-8.2 153.24-5.8 157.44-5.8ZM192.23-25.4L184.43-13.4 192.73 0 183.73 0 182.38-3.05 179.33-7.5 175.63-2.65 174.33 0 166.73 0 174.93-12.25 166.53-25.4 175.58-25.4 176.98-22.3 179.93-18 183.18-22.7 184.38-25.4 192.23-25.4Z" opacity="1" transform="matrix(1,0,0,1,0,0)" fill="#000000" class="undefined-text-0" data-fill-palette-color="primary" id="text-0"></path></svg></g></svg></g><g transform="matrix(1,0,0,1,0,66.8060149005726)"><svg viewBox="0 0 395.52 22.1848807032231" height="22.1848807032231" width="395.52"><g transform="matrix(1,0,0,1,0,0)"><svg width="395.52" viewBox="2.75 -35.5 836.0499877929688 46.900001525878906" height="22.1848807032231" data-palette-color="#89939e"><path d="M28.8-4.5L28.8-4.5Q32.6-8.3 33.05-16.4L33.05-16.4 34.05-35 38.55-35 37.55-16.2Q37.2-9.6 35.23-5.7 33.25-1.8 28.7 1L28.7 1Q24.7-1.85 23.15-6.03 21.6-10.2 20.75-17.35L20.75-17.35 20.55-17.35Q20.15-9.9 18.63-6.25 17.1-2.6 12.6 1L12.6 1Q8.05-1.8 6.08-5.7 4.1-9.6 3.75-16.2L3.75-16.2 2.75-35 7.25-35 8.25-16.4Q8.7-8.3 12.5-4.5L12.5-4.5Q14.95-6.6 16.15-10.78 17.35-14.95 18.4-24L18.4-24 22.9-24Q24.3-16.2 25.45-11.9 26.6-7.6 27.23-6.45 27.85-5.3 28.8-4.5ZM56.05-24.5L56.05-24.5Q64.55-24.15 64.55-17.45L64.55-17.45Q64.55-9.1 53.6-9.1L53.6-9.1 51.55-9.1 51.55-12.95 53.95-12.95Q57.3-12.95 58.6-13.98 59.9-15 59.9-17.4L59.9-17.4Q59.9-18.95 58.75-19.73 57.6-20.5 55.8-20.5L55.8-20.5Q52.25-20.5 50.22-18 48.2-15.5 48.2-12L48.2-12Q48.2-8.3 50.37-6 52.55-3.7 56.05-3.7L56.05-3.7Q59.2-3.7 61.2-5.25L61.2-5.25 64.2-2.3Q60.75 0.5 56.05 0.5L56.05 0.5Q50.35 0.5 46.95-2.85 43.55-6.2 43.55-11.5L43.55-11.5Q43.55-17.4 46.9-21.05 50.25-24.7 56.05-24.5ZM68.8-24L68.3-35 72.7-35 72.2-24 68.8-24ZM81.09 0L76.69 0 76.69-13.65Q76.69-19.4 78.84-21.6L78.84-21.6Q79.89-22.7 81.39-23.25 82.89-23.8 84.02-23.9 85.14-24 87.09-24L87.09-24 91.49-24 91.49-19.8 86.19-19.8Q85.19-19.8 84.64-19.75 84.09-19.7 83.34-19.4 82.59-19.1 82.04-18.45L82.04-18.45Q81.09-17.25 81.09-13.65L81.09-13.65 81.09 0ZM106.49-24.5L106.49-24.5Q114.99-24.15 114.99-17.45L114.99-17.45Q114.99-9.1 104.04-9.1L104.04-9.1 101.99-9.1 101.99-12.95 104.39-12.95Q107.74-12.95 109.04-13.98 110.34-15 110.34-17.4L110.34-17.4Q110.34-18.95 109.19-19.73 108.04-20.5 106.24-20.5L106.24-20.5Q102.69-20.5 100.67-18 98.64-15.5 98.64-12L98.64-12Q98.64-8.3 100.82-6 102.99-3.7 106.49-3.7L106.49-3.7Q109.64-3.7 111.64-5.25L111.64-5.25 114.64-2.3Q111.19 0.5 106.49 0.5L106.49 0.5Q100.79 0.5 97.39-2.85 93.99-6.2 93.99-11.5L93.99-11.5Q93.99-17.4 97.34-21.05 100.69-24.7 106.49-24.5ZM156.19-17.5L156.19-17.5Q156.14-9.15 151.56-4.58 146.99 0 138.94 0L138.94 0 132.14 0 132.14-35 138.94-35Q146.99-35 151.56-30.43 156.14-25.85 156.19-17.5ZM136.84-4.4L139.54-4.4Q145.09-4.4 148.06-8.08 151.04-11.75 151.14-17.5L151.14-17.5Q151.04-23.25 148.06-26.93 145.09-30.6 139.54-30.6L139.54-30.6 136.84-30.6 136.84-4.4ZM173.93-24.5L173.93-24.5Q182.43-24.15 182.43-17.45L182.43-17.45Q182.43-9.1 171.48-9.1L171.48-9.1 169.43-9.1 169.43-12.95 171.83-12.95Q175.18-12.95 176.48-13.98 177.78-15 177.78-17.4L177.78-17.4Q177.78-18.95 176.63-19.73 175.48-20.5 173.68-20.5L173.68-20.5Q170.13-20.5 168.11-18 166.08-15.5 166.08-12L166.08-12Q166.08-8.3 168.26-6 170.43-3.7 173.93-3.7L173.93-3.7Q177.08-3.7 179.08-5.25L179.08-5.25 182.08-2.3Q178.63 0.5 173.93 0.5L173.93 0.5Q168.23 0.5 164.83-2.85 161.43-6.2 161.43-11.5L161.43-11.5Q161.43-17.4 164.78-21.05 168.13-24.7 173.93-24.5ZM199.23-24L199.23-19.8 193.48-19.8 193.48 0 188.98 0 188.98-19.8 185.58-19.8 187.58-24 188.98-24Q188.98-29.1 192.43-32.08 195.88-35.05 201.23-35.05L201.23-35.05 201.23-30.85Q193.48-30.85 193.48-24L193.48-24 199.23-24ZM209.73-24L209.73 0 205.33 0 205.33-19.8 201.23-19.8 203.23-24 209.73-24ZM205.13-29L205.13-29Q204.48-29.85 204.48-30.85 204.48-31.85 205.13-32.68 205.78-33.5 207.13-33.5 208.48-33.5 209.13-32.68 209.78-31.85 209.78-30.85 209.78-29.85 209.13-29.03 208.48-28.2 207.13-28.2 205.78-28.2 205.13-29ZM216.68 0L216.68-24 225.33-24Q230.88-24 233.28-22.35L233.28-22.35Q235.43-20.9 236-18.88 236.58-16.85 236.58-13.55L236.58-13.55 236.58 0 232.18 0 232.18-13.5Q232.18-14.4 232.13-15.03 232.08-15.65 231.78-16.63 231.48-17.6 230.93-18.23 230.38-18.85 229.33-19.33 228.28-19.8 226.78-19.8L226.78-19.8 221.08-19.8 221.08 0 216.68 0ZM249.07-24L249.07 0 244.67 0 244.67-19.8 240.57-19.8 242.57-24 249.07-24ZM244.47-29L244.47-29Q243.82-29.85 243.82-30.85 243.82-31.85 244.47-32.68 245.12-33.5 246.47-33.5 247.82-33.5 248.47-32.68 249.12-31.85 249.12-30.85 249.12-29.85 248.47-29.03 247.82-28.2 246.47-28.2 245.12-28.2 244.47-29ZM257.72-19.8L253.27-19.8 262.22-28.75 262.22-24 268.97-24 268.97-19.8 262.22-19.8 262.22-9.5Q262.22-7.75 262.8-6.6 263.37-5.45 264.47-4.98 265.57-4.5 266.55-4.35 267.52-4.2 268.97-4.2L268.97-4.2 268.97 0Q263.22 0 260.47-2.2 257.72-4.4 257.72-9.5L257.72-9.5 257.72-19.8ZM285.47-24.5L285.47-24.5Q293.97-24.15 293.97-17.45L293.97-17.45Q293.97-9.1 283.02-9.1L283.02-9.1 280.97-9.1 280.97-12.95 283.37-12.95Q286.72-12.95 288.02-13.98 289.32-15 289.32-17.4L289.32-17.4Q289.32-18.95 288.17-19.73 287.02-20.5 285.22-20.5L285.22-20.5Q281.67-20.5 279.64-18 277.62-15.5 277.62-12L277.62-12Q277.62-8.3 279.79-6 281.97-3.7 285.47-3.7L285.47-3.7Q288.62-3.7 290.62-5.25L290.62-5.25 293.62-2.3Q290.17 0.5 285.47 0.5L285.47 0.5Q279.77 0.5 276.37-2.85 272.97-6.2 272.97-11.5L272.97-11.5Q272.97-17.4 276.32-21.05 279.67-24.7 285.47-24.5ZM298.97-9.5L298.97-9.5 298.97-35 303.47-35 303.47-9.5Q303.47-7.7 303.89-6.58 304.32-5.45 305.22-4.98 306.12-4.5 306.97-4.35 307.82-4.2 309.22-4.2L309.22-4.2 309.22 0Q303.62 0 301.29-2.15 298.97-4.3 298.97-9.5ZM311.71-11.65L311.71-24 316.11-24 316.11-11.45Q316.11-7.4 317.36-5.8 318.61-4.2 321.96-4.2L321.96-4.2 327.21-4.2 327.21-24 331.61-24 331.61-1.2Q331.61 5.05 328.34 8.22 325.06 11.4 318.06 11.4L318.06 11.4 314.46 11.4 314.46 7.2 317.61 7.2Q326.76 7.2 327.21 0L327.21 0 323.01 0Q316.46 0 314.09-2.3 311.71-4.6 311.71-11.65L311.71-11.65ZM353.91-23.75L353.91 0 349.26 0 349.26-23.85Q349.26-29 352.58-32.25 355.91-35.5 360.81-35.5L360.81-35.5Q366.21-35.5 368.93-32.77 371.66-30.05 371.66-26.1L371.66-26.1Q371.66-21.05 366.96-18.85L366.96-18.85 366.96-18.65Q373.41-16.8 373.41-9.7L373.41-9.7Q373.41 0 361.96 0L361.96 0 355.71 0 355.71-4.4 361.91-4.4Q365.36-4.4 366.96-5.8 368.56-7.2 368.56-10.3L368.56-10.3Q368.56-13 366.83-14.45 365.11-15.9 362.16-15.9L362.16-15.9 357.21-15.9 357.21-20.05 360.41-20.05Q363.11-20.05 365.03-21.53 366.96-23 366.96-25.5L366.96-25.5Q366.96-27.9 365.48-29.5 364.01-31.1 360.71-31.1L360.71-31.1Q357.71-31.1 355.81-29.23 353.91-27.35 353.91-23.75L353.91-23.75ZM385.15-24L385.15 0 380.75 0 380.75-19.8 376.65-19.8 378.65-24 385.15-24ZM380.55-29L380.55-29Q379.9-29.85 379.9-30.85 379.9-31.85 380.55-32.68 381.2-33.5 382.55-33.5 383.9-33.5 384.55-32.68 385.2-31.85 385.2-30.85 385.2-29.85 384.55-29.03 383.9-28.2 382.55-28.2 381.2-28.2 380.55-29ZM403 0L403 0Q398.1 0 394.6-3.3 391.1-6.6 391.1-11.75L391.1-11.75Q391.1-16.95 394.63-20.48 398.15-24 403.35-24L403.35-24 415.1-24 415.1-0.7Q415.1 1.55 414.53 3.35 413.95 5.15 412.9 6.4 411.85 7.65 411 8.35 410.15 9.05 408.95 9.8L408.95 9.8Q405.85 11.4 401.4 11.4L401.4 11.4 395.8 11.4 395.8 7.2 400.95 7.2Q405.35 7.2 407.2 6.1L407.2 6.1Q410.6 4.2 410.6-0.2L410.6-0.2 410.6-19.8 403.35-19.8Q399.8-19.8 397.7-17.6 395.6-15.4 395.6-11.75L395.6-11.75Q395.6-8.25 397.78-6.23 399.95-4.2 403-4.2L403-4.2Q406.3-4.2 408.8-6L408.8-6 408.8-1.5Q406.1 0 403 0ZM460.85-17.35L460.85-17.35Q460.8-20.15 460.02-22.65 459.25-25.15 457.77-27.03 456.3-28.9 454.2-30 452.1-31.1 449.45-31.1L449.45-31.1Q446.8-31.1 444.7-30 442.6-28.9 441.12-27.03 439.65-25.15 438.87-22.65 438.1-20.15 438.05-17.35L438.05-17.35Q438.1-14.5 438.87-12.05 439.65-9.6 441.12-7.8 442.6-6 444.7-4.95 446.8-3.9 449.45-3.9L449.45-3.9Q452.1-3.9 454.2-4.95 456.3-6 457.77-7.8 459.25-9.6 460.02-12.05 460.8-14.5 460.85-17.35ZM433-17.35L433-17.35Q433.05-21.5 434.25-24.85 435.45-28.2 437.6-30.58 439.75-32.95 442.75-34.23 445.75-35.5 449.45-35.5L449.45-35.5Q453.1-35.5 456.12-34.23 459.15-32.95 461.3-30.58 463.45-28.2 464.65-24.85 465.85-21.5 465.9-17.35L465.9-17.35Q465.85-13.2 464.67-9.9 463.5-6.6 461.35-4.3 459.2-2 456.17-0.75 453.15 0.5 449.45 0.5L449.45 0.5Q445.75 0.5 442.72-0.75 439.7-2 437.55-4.3 435.4-6.6 434.22-9.9 433.05-13.2 433-17.35ZM472.14 0L472.14-24 480.79-24Q486.34-24 488.74-22.35L488.74-22.35Q490.89-20.9 491.47-18.88 492.04-16.85 492.04-13.55L492.04-13.55 492.04 0 487.64 0 487.64-13.5Q487.64-14.4 487.59-15.03 487.54-15.65 487.24-16.63 486.94-17.6 486.39-18.23 485.84-18.85 484.79-19.33 483.74-19.8 482.24-19.8L482.24-19.8 476.54-19.8 476.54 0 472.14 0ZM514.59-23.75L514.59 0 509.94 0 509.94-23.85Q509.94-29 513.26-32.25 516.59-35.5 521.49-35.5L521.49-35.5Q526.89-35.5 529.61-32.77 532.34-30.05 532.34-26.1L532.34-26.1Q532.34-21.05 527.64-18.85L527.64-18.85 527.64-18.65Q534.09-16.8 534.09-9.7L534.09-9.7Q534.09 0 522.64 0L522.64 0 516.39 0 516.39-4.4 522.59-4.4Q526.04-4.4 527.64-5.8 529.24-7.2 529.24-10.3L529.24-10.3Q529.24-13 527.51-14.45 525.79-15.9 522.84-15.9L522.84-15.9 517.89-15.9 517.89-20.05 521.09-20.05Q523.79-20.05 525.71-21.53 527.64-23 527.64-25.5L527.64-25.5Q527.64-27.9 526.16-29.5 524.69-31.1 521.39-31.1L521.39-31.1Q518.39-31.1 516.49-29.23 514.59-27.35 514.59-23.75L514.59-23.75ZM559.24-24L559.24 0 550.59 0Q545.04 0 542.64-1.65L542.64-1.65Q540.49-3.1 539.91-5.13 539.34-7.15 539.34-10.45L539.34-10.45 539.34-24 543.74-24 543.74-10.5Q543.74-9.6 543.79-8.97 543.84-8.35 544.14-7.38 544.44-6.4 544.99-5.78 545.54-5.15 546.59-4.67 547.64-4.2 549.14-4.2L549.14-4.2 554.84-4.2 554.84-24 559.24-24ZM571.98-24L571.98 0 567.58 0 567.58-19.8 563.48-19.8 565.48-24 571.98-24ZM567.38-29L567.38-29Q566.73-29.85 566.73-30.85 566.73-31.85 567.38-32.68 568.03-33.5 569.38-33.5 570.73-33.5 571.38-32.68 572.03-31.85 572.03-30.85 572.03-29.85 571.38-29.03 570.73-28.2 569.38-28.2 568.03-28.2 567.38-29ZM578.68-9.5L578.68-9.5 578.68-35 583.18-35 583.18-9.5Q583.18-7.7 583.61-6.58 584.03-5.45 584.93-4.98 585.83-4.5 586.68-4.35 587.53-4.2 588.93-4.2L588.93-4.2 588.93 0Q583.33 0 581.01-2.15 578.68-4.3 578.68-9.5ZM610.93-4.2L610.93-35 615.43-35 615.43 0 603.68 0Q598.23 0 594.83-3.48 591.43-6.95 591.43-12.25L591.43-12.25Q591.43-17.45 594.95-20.98 598.48-24.5 603.33-24.5L603.33-24.5Q606.43-24.5 609.13-23L609.13-23 609.13-18.5Q606.63-20.3 603.33-20.3L603.33-20.3Q600.33-20.3 598.25-18.07 596.18-15.85 596.18-12.25L596.18-12.25Q596.18-8.6 598.15-6.4 600.13-4.2 603.68-4.2L603.68-4.2 610.93-4.2ZM627.93-24L627.93 0 623.53 0 623.53-19.8 619.43-19.8 621.43-24 627.93-24ZM623.33-29L623.33-29Q622.68-29.85 622.68-30.85 622.68-31.85 623.33-32.68 623.98-33.5 625.33-33.5 626.68-33.5 627.33-32.68 627.98-31.85 627.98-30.85 627.98-29.85 627.33-29.03 626.68-28.2 625.33-28.2 623.98-28.2 623.33-29ZM634.87 0L634.87-24 643.52-24Q649.07-24 651.47-22.35L651.47-22.35Q653.62-20.9 654.2-18.88 654.77-16.85 654.77-13.55L654.77-13.55 654.77 0 650.37 0 650.37-13.5Q650.37-14.4 650.32-15.03 650.27-15.65 649.97-16.63 649.67-17.6 649.12-18.23 648.57-18.85 647.52-19.33 646.47-19.8 644.97-19.8L644.97-19.8 639.27-19.8 639.27 0 634.87 0ZM671.92 0L671.92 0Q667.02 0 663.52-3.3 660.02-6.6 660.02-11.75L660.02-11.75Q660.02-16.95 663.55-20.48 667.07-24 672.27-24L672.27-24 684.02-24 684.02-0.7Q684.02 1.55 683.45 3.35 682.87 5.15 681.82 6.4 680.77 7.65 679.92 8.35 679.07 9.05 677.87 9.8L677.87 9.8Q674.77 11.4 670.32 11.4L670.32 11.4 664.72 11.4 664.72 7.2 669.87 7.2Q674.27 7.2 676.12 6.1L676.12 6.1Q679.52 4.2 679.52-0.2L679.52-0.2 679.52-19.8 672.27-19.8Q668.72-19.8 666.62-17.6 664.52-15.4 664.52-11.75L664.52-11.75Q664.52-8.25 666.7-6.23 668.87-4.2 671.92-4.2L671.92-4.2Q675.22-4.2 677.72-6L677.72-6 677.72-1.5Q675.02 0 671.92 0ZM708.82-30.6L700.17-30.6 700.17-35 722.17-35 722.17-30.6 713.52-30.6 713.52 0 708.82 0 708.82-30.6ZM726.41-35L730.81-35 730.81-24 735.06-24Q740.61-24 743.01-22.35L743.01-22.35Q745.16-20.9 745.74-18.88 746.31-16.85 746.31-13.55L746.31-13.55 746.31 0 741.91 0 741.91-13.5Q741.91-14.4 741.86-15.03 741.81-15.65 741.51-16.63 741.21-17.6 740.66-18.23 740.11-18.85 739.06-19.33 738.01-19.8 736.51-19.8L736.51-19.8 730.81-19.8 730.81 0 726.41 0 726.41-35ZM758.81-24L758.81 0 754.41 0 754.41-19.8 750.31-19.8 752.31-24 758.81-24ZM754.21-29L754.21-29Q753.56-29.85 753.56-30.85 753.56-31.85 754.21-32.68 754.86-33.5 756.21-33.5 757.56-33.5 758.21-32.68 758.86-31.85 758.86-30.85 758.86-29.85 758.21-29.03 757.56-28.2 756.21-28.2 754.86-28.2 754.21-29ZM765.76 0L765.76-24 774.41-24Q779.96-24 782.36-22.35L782.36-22.35Q784.51-20.9 785.08-18.88 785.66-16.85 785.66-13.55L785.66-13.55 785.66 0 781.26 0 781.26-13.5Q781.26-14.4 781.21-15.03 781.16-15.65 780.86-16.63 780.56-17.6 780.01-18.23 779.46-18.85 778.41-19.33 777.36-19.8 775.86-19.8L775.86-19.8 770.16-19.8 770.16 0 765.76 0ZM802.81 0L802.81 0Q797.91 0 794.41-3.3 790.91-6.6 790.91-11.75L790.91-11.75Q790.91-16.95 794.43-20.48 797.96-24 803.16-24L803.16-24 814.91-24 814.91-0.7Q814.91 1.55 814.33 3.35 813.76 5.15 812.71 6.4 811.66 7.65 810.81 8.35 809.96 9.05 808.76 9.8L808.76 9.8Q805.66 11.4 801.21 11.4L801.21 11.4 795.61 11.4 795.61 7.2 800.76 7.2Q805.16 7.2 807.01 6.1L807.01 6.1Q810.41 4.2 810.41-0.2L810.41-0.2 810.41-19.8 803.16-19.8Q799.61-19.8 797.51-17.6 795.41-15.4 795.41-11.75L795.41-11.75Q795.41-8.25 797.58-6.23 799.76-4.2 802.81-4.2L802.81-4.2Q806.11-4.2 808.61-6L808.61-6 808.61-1.5Q805.91 0 802.81 0ZM828.95-24L837.8-24 837.8-19.8 828.95-19.8Q827.5-19.8 826.45-19.25 825.4-18.7 825.4-17.7L825.4-17.7Q825.4-17.1 825.65-16.63 825.9-16.15 826.23-15.85 826.55-15.55 827.23-15.23 827.9-14.9 828.28-14.78 828.65-14.65 831.45-13.75 834.25-12.85 835.6-12.25 836.95-11.65 837.68-10.63 838.4-9.6 838.6-8.63 838.8-7.65 838.8-6.7L838.8-6.7Q838.8 0 829.6 0L829.6 0 820.95 0 820.95-4.2 829.6-4.2Q834.3-4.2 834.3-6.7L834.3-6.7Q834.3-7.9 832.93-8.7 831.55-9.5 829.58-10.05 827.6-10.6 825.63-11.33 823.65-12.05 822.28-13.68 820.9-15.3 820.9-17.7L820.9-17.7Q820.9-20.75 823.25-22.38 825.6-24 828.95-24L828.95-24Z" opacity="1" transform="matrix(1,0,0,1,0,0)" fill="#000000" class="undefined-text-1" data-fill-palette-color="secondary" id="text-1"></path></svg></g></svg></g></svg></g></svg></g><g><svg viewBox="0 0 155.2258588533763 122.98541772444568" height="122.98541772444568" width="155.2258588533763"><g><svg xmlns="http://www.w3.org/2000/svg" xmlns:xlink="http://www.w3.org/1999/xlink" version="1.1" x="0" y="0" viewBox="11.873929023742676 24.32900047302246 120.33450317382812 95.34100341796875" enable-background="new 0 0 144.083 144" xml:space="preserve" height="122.98541772444568" width="155.2258588533763" class="icon-icon-0" data-fill-palette-color="accent" id="icon-0"><path d="M132.123 84.01l-10.002-40.911c-0.328-1.343-1.531-2.288-2.914-2.288H50.291V27.329c0-1.657-1.343-3-3-3h-14c-1.657 0-3 1.343-3 3v13.482h-5.416c-1.382 0-2.586 0.945-2.914 2.288L11.96 84.01c-0.219 0.895-0.015 1.84 0.554 2.564s1.439 1.147 2.36 1.147h1.733v28.949c0 1.657 1.343 3 3 3h33.275 9.746 18.824 9.746 33.275c1.657 0 3-1.343 3-3V87.722h1.734c0.921 0 1.791-0.423 2.359-1.147C132.137 85.85 132.341 84.904 132.123 84.01zM125.386 81.722H94.199V67.257c0-0.707-0.25-1.391-0.705-1.932l-7.123-8.46h32.938L125.386 81.722zM72.217 49.369l15.981 18.982v45.319h-4.996V86.603c0-1.657-1.343-3-3-3H63.878c-1.657 0-3 1.343-3 3v27.068h-4.996V68.369L72.217 49.369zM66.878 112.86V89.603h10.324v23.258H66.878zM117.842 50.864H81.32l-3.412-4.053h38.944L117.842 50.864zM36.291 30.329h8v10.482h-8V30.329zM66.504 46.812l-3.484 4.053H26.239l0.991-4.053H66.504zM24.772 56.864h33.089l-7.254 8.437c-0.468 0.544-0.725 1.238-0.725 1.956v14.465H18.696L24.772 56.864zM22.607 87.722h27.275v25.949h-4.638v-12.537c0-5.24-4.264-9.504-9.505-9.504-5.24 0-9.504 4.264-9.504 9.504v12.537h-3.629V87.722zM39.245 113.671h-7.009v-12.537c0-1.933 1.572-3.504 3.504-3.504 1.933 0 3.505 1.571 3.505 3.504V113.671zM111.212 113.671h-7.006v-12.537c0-1.933 1.571-3.504 3.502-3.504 1.932 0 3.504 1.571 3.504 3.504V113.671zM121.474 113.671h-4.262v-12.537c0-5.24-4.264-9.504-9.504-9.504-5.239 0-9.502 4.264-9.502 9.504v12.537h-4.008V87.722h27.275V113.671z" fill="#000000" data-fill-palette-color="accent"></path></svg></g></svg></g></svg></g><defs></defs></svg><rect width="395.52" height="86.32255333945204" fill="none" stroke="none" visibility="hidden"></rect></g></svg></g></svg>