<?xml version="1.0" encoding="UTF-8"?>
<svg version="1.1" xmlns="http://www.w3.org/2000/svg" width="1600" height="195">
<path d="M0 0 C6.21303258 4.51761627 11.65220052 9.44199801 16.3515625 15.5390625 C17.05667969 16.39757812 17.76179688 17.25609375 18.48828125 18.140625 C33.23774356 36.7214417 40.78192499 59.05303853 40.6640625 82.7265625 C40.65842285 83.91475586 40.6527832 85.10294922 40.64697266 86.32714844 C40.25521669 114.78957711 28.30641475 138.72078495 9.0390625 159.3515625 C-6.96956196 174.64932441 -27.0091109 180.98100976 -48.7734375 180.9140625 C-49.46541229 180.91318634 -50.15738708 180.91231018 -50.87033081 180.91140747 C-72.24569134 180.82189046 -89.14590979 174.43000328 -105.6484375 160.5390625 C-106.56238281 159.77464844 -107.47632813 159.01023438 -108.41796875 158.22265625 C-126.69076785 141.51833776 -137.39272569 115.50120582 -138.79199219 91.02832031 C-139.90780834 61.89557573 -131.63508971 34.97565764 -112.5859375 12.6015625 C-83.62812658 -18.58377234 -35.04999145 -24.31224285 0 0 Z M-49.6484375 10.5390625 C-52.04462357 12.93524857 -51.99281311 13.7972407 -52.32421875 17.08984375 C-52.42694092 18.00983154 -52.52966309 18.92981934 -52.63549805 19.87768555 C-52.79659058 21.34975464 -52.79659058 21.34975464 -52.9609375 22.8515625 C-55.16722617 40.50899355 -61.60762252 54.92564265 -75.6484375 66.5390625 C-89.70384338 76.80295562 -104.80485063 80.16591109 -121.6484375 82.5390625 C-121.6484375 83.5290625 -121.6484375 84.5190625 -121.6484375 85.5390625 C-121.1121875 85.63703125 -120.5759375 85.735 -120.0234375 85.8359375 C-97.32194057 90.16714415 -76.71902803 95.98183992 -62.97265625 115.9765625 C-57.13755182 125.24322959 -54.15342846 134.18227363 -52.9609375 145.0390625 C-52.73075788 146.98732318 -52.49782599 148.93526129 -52.26171875 150.8828125 C-52.16673096 151.73037109 -52.07174316 152.57792969 -51.97387695 153.45117188 C-51.74854253 155.59229159 -51.74854253 155.59229159 -50.6484375 157.5390625 C-49.6584375 157.2090625 -48.6684375 156.8790625 -47.6484375 156.5390625 C-47.54821289 155.96051514 -47.44798828 155.38196777 -47.34472656 154.78588867 C-43.52716065 133.03398677 -37.93520898 114.02787833 -19.50390625 100.17578125 C-7.49706382 92.46643019 5.34132668 88.00908288 19.50390625 86.78515625 C21.44311344 86.6287915 21.44311344 86.6287915 23.3515625 85.5390625 C23.3515625 84.5490625 23.3515625 83.5590625 23.3515625 82.5390625 C22.7939624 82.44931152 22.2363623 82.35956055 21.66186523 82.26708984 C-0.35834507 78.63437718 -19.61629736 72.63840495 -33.58984375 53.94140625 C-40.44723036 43.64792095 -44.01167216 33.39151135 -45.97265625 21.30078125 C-46.63933213 17.58974733 -47.5535189 14.1406458 -48.6484375 10.5390625 C-48.9784375 10.5390625 -49.3084375 10.5390625 -49.6484375 10.5390625 Z " fill="#EBE7CA" transform="translate(1270.6484375,14.4609375)"/>
<path d="M0 0 C4.82339978 3.43862232 6.78117359 5.70128432 8.421875 11.54296875 C8.71502594 12.56465401 8.71502594 12.56465401 9.01409912 13.60697937 C9.70541508 16.06423461 10.35540404 18.53008073 11 21 C11.25773193 21.97535706 11.51546387 22.95071411 11.78100586 23.95562744 C13.82417328 31.72393893 15.79113597 39.51096819 17.74514771 47.30207443 C18.602113 50.71468631 19.46432905 54.1259708 20.32617188 57.53735352 C21.60018638 62.58182487 22.87272648 67.62666378 24.14349365 72.67195415 C26.6940039 82.79712864 29.25861409 92.9186948 31.828125 103.0390625 C32.12381756 104.20372701 32.12381756 104.20372701 32.4254837 105.39192009 C33.20879436 108.47704397 33.99217687 111.56214958 34.77568436 114.64722347 C36.63279612 121.95964317 38.48817065 129.27250318 40.34322357 136.5854454 C41.12654982 139.67343196 41.90996104 142.76139696 42.69335938 145.84936523 C43.12890783 147.56624309 43.56445538 149.28312117 44 151 C55.25698611 116.02407631 55.25698611 116.02407631 66.37240601 81.00302124 C67.06495685 78.80470138 67.75935517 76.60697352 68.4543457 74.40942383 C68.93054446 72.9031712 69.40669941 71.39690471 69.8828125 69.890625 C70.24196999 68.75435921 70.24196999 68.75435921 70.60838318 67.59513855 C72.0759586 62.94583605 73.53330055 58.29345667 74.98339844 53.63867188 C76.76790354 47.91063367 78.5650094 42.18666295 80.36886597 36.46469116 C81.07472831 34.21744978 81.77609099 31.96878951 82.47268677 29.71865845 C83.44794282 26.57034507 84.43901968 23.42741164 85.43359375 20.28515625 C85.7196347 19.34835022 86.00567566 18.41154419 86.30038452 17.4463501 C88.44449624 10.75317726 90.83467814 4.93795216 97.0625 1.125 C104.29288242 -1.64408263 110.98756855 -2.04684554 118.1875 1.046875 C127.06036371 5.71277747 129.43204334 16.99954552 132.26423645 25.94856262 C133.63330698 30.35563271 134.97568355 34.77055663 136.3125 39.1875 C137.38939225 42.72343238 138.46961109 46.25834229 139.55078125 49.79296875 C139.82692764 50.69689865 140.10307404 51.60082855 140.3875885 52.53215027 C143.12295466 61.45782694 145.97391986 70.34531255 148.8293457 79.2331543 C152.47351912 90.57894536 156.06726473 101.94084085 159.66625977 113.30102539 C160.74324724 116.7002606 161.8217283 120.0990202 162.90048885 123.49769306 C163.74286542 126.15254851 164.58416839 128.80774327 165.42517281 131.46303368 C166.01435916 133.32230627 166.60469324 135.18121504 167.1950531 137.04011536 C167.54955032 138.16036606 167.90404755 139.28061676 168.26928711 140.43481445 C168.58046982 141.41642044 168.89165253 142.39802643 169.21226501 143.40937805 C169.87754294 145.5972758 170.45560952 147.78014461 171 150 C173.26069795 143.5335797 175.11556942 137.022847 176.79980469 130.38500977 C177.06209869 129.36231995 177.3243927 128.33963013 177.59463501 127.28594971 C178.45669902 123.92185781 179.31424031 120.5566298 180.171875 117.19140625 C180.77825552 114.8226645 181.38497127 112.45400855 181.99200439 110.08543396 C183.58999286 103.84741204 185.18437517 97.60847469 186.77770996 91.3692627 C189.3120566 81.44665128 191.85082526 71.52517298 194.39157867 61.60420036 C195.2675337 58.18106869 196.14131621 54.75738833 197.01483154 51.33363342 C198.38095209 45.98299046 199.7653993 40.63727336 201.15415955 35.29246902 C202.05401724 31.78973564 202.92633156 28.28069759 203.79846191 24.77096558 C204.40048329 22.40826382 205.00312613 20.04572031 205.60644531 17.68334961 C206.00558702 16.03685724 206.00558702 16.03685724 206.41279221 14.35710239 C207.93259014 8.4966384 209.09516206 4.70035282 214 1 C219.01853894 -1.50926947 223.65932562 -1.31124084 229 0 C233.88789183 2.44394592 236.17813557 4.83805078 238 10 C238.49106613 16.45590385 237.00012397 22.32626666 235.50390625 28.58203125 C235.10263268 30.28683403 235.10263268 30.28683403 234.69325256 32.02607727 C231.59196979 45.0046527 228.05772659 57.86322624 224.48421478 70.71822357 C223.54762318 74.09184327 222.61719217 77.46716225 221.68603516 80.84228516 C220.17950067 86.30021454 218.66944341 91.75715673 217.15673828 97.21337891 C215.17778024 104.35209254 213.21025553 111.49392147 211.24609375 118.63671875 C208.39657037 128.99485334 205.52666008 139.34716922 202.64129639 149.69537354 C202.03701173 151.86699096 201.43603102 154.03948891 200.83642578 156.21240234 C199.88092868 159.6655946 198.91241826 163.11475066 197.9375 166.5625 C197.68661621 167.47821777 197.43573242 168.39393555 197.17724609 169.33740234 C194.96879083 177.0223423 191.5958457 182.25099109 185 187 C179.02417712 189.91842513 171.9275445 189.9834422 165.53515625 188.3828125 C159.50389781 186.05278787 155.53604507 182.36033632 152 177 C149.76410869 171.91595506 148.13869445 166.67209564 146.5 161.375 C145.99260764 159.78818826 145.48319092 158.20202263 144.97192383 156.61645508 C143.8749342 153.20607137 142.78869151 149.79251219 141.70947266 146.37646484 C139.98189816 140.92254438 138.20506284 135.48544597 136.41796875 130.05078125 C129.07628155 107.7052169 121.87707499 85.31499322 114.74682617 62.90112305 C114.44284912 61.94570114 114.13887207 60.99027924 113.82568359 60.00590515 C113.26019754 58.22782366 112.69514281 56.44960491 112.13061523 54.67121887 C110.78461742 50.43669234 109.4182615 46.21106077 108 42 C105.54837083 48.35775034 103.40550209 54.78347473 101.33203125 61.2734375 C100.80404686 62.91810249 100.80404686 62.91810249 100.26539612 64.59599304 C99.50756258 66.95768147 98.75064948 69.3196654 97.99456787 71.68191528 C96.79789573 75.4206275 95.59867477 79.15851434 94.39892578 82.89624023 C90.79367842 94.13154244 87.19821263 105.36993695 83.61753845 116.61309814 C82.20534724 121.0473009 80.79135364 125.48092839 79.37753296 129.91461182 C78.40918217 132.95517021 77.44433715 135.99682451 76.47973633 139.03857422 C74.98561878 143.74210249 73.46328621 148.43585398 71.92858887 153.12628174 C70.94356248 156.17465807 69.99466795 159.23324828 69.04394531 162.29248047 C68.37700191 164.36078765 67.70874523 166.42867189 67.0390625 168.49609375 C66.7530014 169.44605728 66.46694031 170.39602081 66.17221069 171.37477112 C63.48403334 179.48728194 58.97265566 183.67637122 51.6875 187.9375 C43.88665182 190.18520202 36.22022097 189.82440928 29 186 C21.51025547 181.23379894 19.31769951 173.62194798 17.1796875 165.48046875 C16.79561234 164.06706459 16.79561234 164.06706459 16.40377808 162.62510681 C15.55178795 159.48160906 14.71353105 156.33461222 13.875 153.1875 C13.26954461 150.94423129 12.66307374 148.70123644 12.05566406 146.45849609 C10.73880076 141.59214767 9.42698687 136.72447386 8.11816406 131.85595703 C5.52605827 122.22081064 2.89298045 112.59689119 0.26104736 102.9725647 C-0.12936286 101.54486331 -0.51976406 100.11715945 -0.91015625 98.68945312 C-1.10349171 97.98245962 -1.29682716 97.27546612 -1.49602127 96.54704857 C-2.85729621 91.56708428 -4.21323012 86.58568615 -5.56640625 81.60351562 C-6.31760265 78.83851294 -7.06890154 76.07353813 -7.8203125 73.30859375 C-8.00242531 72.63839581 -8.18453812 71.96819786 -8.37216949 71.27769089 C-10.66298412 62.85177584 -12.99180695 54.43763569 -15.3671875 46.03515625 C-16.07314671 43.51473042 -16.77765365 40.99390528 -17.48132324 38.47283936 C-18.09569038 36.2915622 -18.72745545 34.11589792 -19.36035156 31.93994141 C-21.8964357 22.98025566 -24.18277619 13.27504246 -20.5 4.375 C-14.80944686 -1.03102548 -7.51530455 -2.45013064 0 0 Z " fill="#EBE7CA" transform="translate(22,4)"/>
<path d="M0 0 C9.26356177 8.14945857 13.73169444 23.23475546 18.44140625 34.29296875 C19.57187818 36.93069555 20.70550426 39.56705943 21.83984375 42.203125 C22.25469025 43.16831306 22.25469025 43.16831306 22.67791748 44.15299988 C25.39264007 50.45484709 28.20701224 56.71022948 31.08740234 62.93798828 C32.99465671 67.10731291 34.70665463 71.30944069 36.3203125 75.6015625 C39.55251808 84.10323889 43.28660844 92.37056738 47.00390625 100.66796875 C47.70145507 102.23294672 48.39872194 103.79805039 49.09570312 105.36328125 C53.01949034 114.16277014 57.00079883 122.93294128 61.06640625 131.66796875 C67.03091213 120.08516241 72.46074159 108.30624365 77.72045898 96.38842773 C78.99526908 93.50003833 80.27544933 90.6140794 81.55664062 87.72851562 C88.38410565 72.32763234 95.14030919 56.89217985 101.50390625 41.29296875 C102.6862806 38.4158251 103.87431791 35.5411017 105.06640625 32.66796875 C105.45473633 31.73033691 105.84306641 30.79270508 106.24316406 29.82666016 C107.52579417 26.74745924 108.82554841 23.67594696 110.12890625 20.60546875 C110.52843506 19.64141113 110.92796387 18.67735352 111.33959961 17.68408203 C115.64470837 7.62977348 120.90524042 -0.44002197 131.31640625 -4.64453125 C140.09116529 -6.25323707 148.12874148 -6.13753458 155.78515625 -1.23046875 C159.48686949 1.58210749 161.30265681 4.43058683 163.06640625 8.66796875 C163.4495163 11.9223032 163.4495163 11.9223032 163.46081543 15.5059967 C163.46690653 16.16913091 163.47299764 16.83226511 163.47927332 17.51549429 C163.49584228 19.72412969 163.4911366 21.93218471 163.48632812 24.14086914 C163.49367184 25.72968644 163.50225896 27.31849841 163.51199341 28.90730286 C163.53418147 33.21297848 163.53714162 37.51846258 163.5352459 41.82418752 C163.53512612 45.42030452 163.54369285 49.01638105 163.55202341 52.61248678 C163.57124611 61.09495687 163.57414475 69.57732855 163.56738281 78.05981445 C163.56073597 86.81005444 163.5836347 95.55987353 163.62069654 104.31002814 C163.651376 111.82611334 163.66275569 119.34206297 163.65885973 126.85820955 C163.65679115 131.34592561 163.66228871 135.8333138 163.68675232 140.32097054 C163.70898934 144.53926033 163.70716755 148.75686406 163.6868248 152.97515678 C163.68340979 154.52273464 163.6885251 156.07035844 163.70280838 157.61787415 C163.72097218 159.73169287 163.70827867 161.84317655 163.68786621 163.95692444 C163.68857872 165.13916627 163.68929123 166.3214081 163.69002533 167.53947544 C162.87851244 171.61057066 161.25100995 173.09126991 158.06640625 175.66796875 C152.59714169 177.49105694 145.41503335 177.91598106 139.94921875 175.87890625 C137.29341788 174.14801116 135.82658816 172.30824161 134.06640625 169.66796875 C133.80469322 167.25294971 133.80469322 167.25294971 133.78793335 164.3339386 C133.77676987 163.22756042 133.76560638 162.12118225 133.75410461 160.98127747 C133.75194443 159.76711655 133.74978424 158.55295563 133.74755859 157.30200195 C133.73249016 155.38476822 133.73249016 155.38476822 133.71711731 153.42880249 C133.68978688 149.92290638 133.67465897 146.41705053 133.66168928 142.91107583 C133.646072 139.24748883 133.61927734 135.58398419 133.59365845 131.92045593 C133.54684575 124.98259879 133.51011374 118.04472619 133.47698557 111.10679168 C133.43878175 103.20839351 133.38936706 95.310078 133.33900142 87.41174948 C133.23564453 71.16388191 133.14639639 54.91596851 133.06640625 38.66796875 C129.47158903 46.4043572 125.92988211 54.15758836 122.52734375 61.98046875 C122.12454193 62.90420792 121.72174011 63.82794708 121.30673218 64.77967834 C120.01632791 67.74159241 118.72857527 70.70464743 117.44140625 73.66796875 C116.77461853 75.20129349 116.77461853 75.20129349 116.09436035 76.76559448 C110.9012707 88.71359562 105.75624408 100.67537126 100.81640625 112.73046875 C96.51916115 123.18977206 92.18686636 133.63331799 87.75549316 144.03659058 C87.05518353 145.68611823 86.35933795 147.33754943 85.66833496 148.99099731 C84.70121875 151.30276723 83.71783394 153.60697517 82.73046875 155.91015625 C82.30917191 156.93167534 82.30917191 156.93167534 81.87936401 157.97383118 C79.292925 163.92314031 75.68130583 168.73792382 70.44140625 172.60546875 C64.62930555 174.43520416 58.50817847 174.88869584 52.6875 172.82421875 C44.6109549 168.28786704 41.40759977 159.68438117 38.25390625 151.41796875 C37.91480225 150.55244385 37.57569824 149.68691895 37.22631836 148.79516602 C36.16601712 146.0887685 35.11539924 143.37876682 34.06640625 140.66796875 C32.76309567 137.31012498 31.44867956 133.95687082 30.12890625 130.60546875 C29.85393311 129.88907227 29.57895996 129.17267578 29.2956543 128.43457031 C27.06996086 122.781272 24.49600807 117.32296577 21.87109375 111.84765625 C16.98593458 101.6427933 12.53357297 91.27481036 8.12890625 80.85546875 C3.46866594 69.84584285 -1.25375377 58.87653887 -6.22094727 48.0012207 C-6.67715706 47.0000547 -7.13336685 45.9988887 -7.60340118 44.96738434 C-8.71249764 42.53380246 -9.82257337 40.10067273 -10.93359375 37.66796875 C-10.9344109 38.6892249 -10.9344109 38.6892249 -10.93524456 39.73111248 C-10.95021257 56.29825094 -10.9926599 72.86506795 -11.06568432 89.43204784 C-11.10033599 97.4437432 -11.12569005 105.45526647 -11.12915039 113.46704102 C-11.13219006 120.4502167 -11.1526806 127.43308593 -11.19411832 134.41614324 C-11.2154502 138.11364027 -11.22804827 141.81070161 -11.21974754 145.50826073 C-11.21080723 149.63638936 -11.24082765 153.76335376 -11.27416992 157.89135742 C-11.26554428 159.11702927 -11.25691864 160.34270111 -11.24803162 161.60551453 C-11.37323479 170.8270004 -11.37323479 170.8270004 -14.28730774 173.90400696 C-19.76580888 177.55586721 -25.55732589 177.14808403 -31.93359375 176.66796875 C-36.14531465 175.14303532 -37.45345583 174.38817564 -39.93359375 170.66796875 C-40.18806934 167.80118847 -40.18806934 167.80118847 -40.19429016 164.23539734 C-40.19811571 163.57961553 -40.20194126 162.92383372 -40.20588273 162.24817973 C-40.21621747 160.04647559 -40.21221974 157.845032 -40.20825195 155.64331055 C-40.21259826 154.06641396 -40.21778113 152.48951949 -40.22373962 150.91262817 C-40.23715186 146.62532589 -40.23770567 142.33811164 -40.23517632 138.05079246 C-40.23410779 134.47232756 -40.23898712 130.89388056 -40.24378175 127.3154195 C-40.25488532 118.87180581 -40.25531002 110.4282366 -40.24926758 101.98461914 C-40.24323045 93.27489797 -40.25553019 84.56533846 -40.27683765 75.85564488 C-40.29445658 68.37868427 -40.30045442 60.9017751 -40.2971999 53.4247945 C-40.29538686 48.95888395 -40.29802506 44.49308863 -40.31191444 40.02719688 C-40.32449238 35.82550179 -40.32254906 31.62405834 -40.30950356 27.4223671 C-40.30713788 25.88166659 -40.30987217 24.34094838 -40.31812668 22.80026817 C-40.32859743 20.69371787 -40.32049178 18.58801137 -40.30781555 16.48149109 C-40.30798329 15.30364894 -40.30815104 14.12580679 -40.30832386 12.91227245 C-39.52403298 6.12211138 -36.03427334 2.30867591 -30.96484375 -1.8515625 C-21.75401162 -8.56484207 -8.87469261 -6.11367713 0 0 Z " fill="#EBE7CA" transform="translate(1436.93359375,13.33203125)"/>
<path d="M0 0 C1.14276901 -0.00630432 2.28553802 -0.01260864 3.4629364 -0.019104 C4.69308975 -0.01505554 5.9232431 -0.01100708 7.19067383 -0.00683594 C8.47267166 -0.00874939 9.75466949 -0.01066284 11.07551575 -0.01263428 C13.7948589 -0.01558094 16.51407061 -0.01131187 19.23339844 -0.00195312 C22.66360425 0.0092951 26.09349498 0.00277838 29.52368927 -0.0088253 C65.53293353 -0.1126049 65.53293353 -0.1126049 81.83520508 4.38378906 C82.6131543 4.59551758 83.39110352 4.80724609 84.19262695 5.02539062 C97.24729305 8.8015776 108.20351965 15.04521361 118.21020508 24.25878906 C118.84055664 24.79761719 119.4709082 25.33644531 120.12036133 25.89160156 C135.08496353 39.45859854 142.59073308 61.6836952 144.21020508 81.25878906 C145.55671951 112.95787452 142.09033242 139.91178462 120.21020508 164.25878906 C104.86681405 180.82638682 81.44610465 188.30234766 59.35043335 189.46122742 C55.10745201 189.5766664 50.86467902 189.59054543 46.62036133 189.59472656 C45.06147648 189.60117199 43.50259279 189.60790157 41.94371033 189.61489868 C38.70398142 189.62677062 35.46435844 189.63058915 32.22460938 189.62939453 C28.08318988 189.62918988 23.9424453 189.65668654 19.80118656 189.69093895 C16.59348946 189.71319465 13.38595663 189.71723278 10.17819023 189.71617508 C8.65081861 189.71852553 7.12344209 189.72731764 5.59614754 189.74283981 C3.46449167 189.7625103 1.33431812 189.75666365 -0.79736328 189.74462891 C-2.00613632 189.74747894 -3.21490936 189.75032898 -4.46031189 189.75326538 C-9.37167383 189.0238572 -12.46573646 187.02941122 -15.43662834 183.05653 C-17.11863386 179.57889779 -17.17537673 177.07230829 -17.19093323 173.21279907 C-17.1977299 172.51517846 -17.20452657 171.81755784 -17.2115292 171.0987972 C-17.23047955 168.76737231 -17.22806587 166.43647373 -17.22558594 164.10498047 C-17.23456483 162.43088609 -17.24477337 160.75679791 -17.25611877 159.0827179 C-17.28260921 154.53926719 -17.28965181 149.995986 -17.29156613 145.45246553 C-17.29369925 142.61290889 -17.30010521 139.77339528 -17.30805779 136.93384933 C-17.33580768 127.02488215 -17.3480637 117.116036 -17.34570312 107.20703125 C-17.34390071 97.97453744 -17.37555941 88.74256946 -17.42293411 79.51020873 C-17.46217655 71.57967807 -17.47825417 63.64931918 -17.4763369 55.71869218 C-17.47557242 50.9837987 -17.4840988 46.24937262 -17.51587105 41.51457596 C-17.54494295 37.0606646 -17.54513421 32.60766656 -17.52332115 28.15372276 C-17.52018706 26.52151211 -17.52725254 24.88924432 -17.54540253 23.25713158 C-17.68947294 9.40166882 -17.68947294 9.40166882 -14.05674744 4.85800171 C-9.71024479 0.93737799 -5.7822326 0.00919602 0 0 Z M14.21020508 26.25878906 C14.21020508 71.79878906 14.21020508 117.33878906 14.21020508 164.25878906 C57.9535196 166.39930366 57.9535196 166.39930366 96.30004883 148.31738281 C106.71029441 137.09816109 111.33669081 122.25210359 111.41333008 107.22363281 C111.41903015 106.34912979 111.42473022 105.47462677 111.43060303 104.57362366 C111.44003109 102.72365519 111.44657827 100.8736701 111.45043945 99.02368164 C111.46008865 96.22999655 111.4911093 93.4370656 111.52270508 90.64355469 C111.63199715 72.59138996 108.45456516 55.71814017 95.43286133 42.21972656 C73.07565408 22.49509029 42.23604504 26.25878906 14.21020508 26.25878906 Z " fill="#EBE7CA" transform="translate(911.789794921875,2.7412109375)"/>
<path d="M0 0 C0.6462735 -0.00335861 1.292547 -0.00671722 1.95840454 -0.01017761 C4.09509209 -0.01967112 6.23170086 -0.02163118 8.3684082 -0.02270508 C9.86896292 -0.02592323 11.36951733 -0.02928771 12.87007141 -0.03279114 C16.02325158 -0.03878158 19.17640438 -0.04063157 22.32958984 -0.04003906 C26.32088683 -0.03993847 30.31200179 -0.05348353 34.30325603 -0.07081127 C37.41016907 -0.08208372 40.51704057 -0.08395353 43.62397194 -0.08342934 C45.09199451 -0.0845908 46.56001884 -0.08890606 48.02802086 -0.0967617 C69.46790972 -0.20058003 94.06814405 0.99436558 110.54418945 16.45776367 C120.55016227 27.37506115 122.06917132 39.81556204 121.7902832 54.02026367 C121.27213823 65.88814855 115.72955451 74.38648438 107.23168945 82.39526367 C101.23993811 87.26440697 93.74304347 89.7994518 86.48168945 92.14526367 C87.41110352 92.56936523 88.34051758 92.9934668 89.2980957 93.43041992 C101.7181022 99.24846865 109.36163194 105.87145465 114.48168945 119.14526367 C117.28938966 127.97502656 118.40861234 137.01012916 119.41699219 146.18017578 C119.66783409 148.44552339 119.93619609 150.70831314 120.20629883 152.97143555 C123.28783945 179.62341045 123.28783945 179.62341045 118.48168945 186.14526367 C114.31851029 189.57376416 109.75099704 190.27357473 104.48168945 190.14526367 C99.58135004 189.32588874 96.29850354 187.85780362 92.54418945 184.58276367 C86.39425434 175.92227853 87.34703534 161.41428889 86.30712891 151.10839844 C85.27456187 130.1235749 85.27456187 130.1235749 76.48168945 112.14526367 C70.83824337 108.25323189 65.01777938 107.05780121 58.23242188 106.93994141 C57.21174118 106.91999619 56.19106049 106.90005096 55.13945007 106.87950134 C54.04969376 106.86278885 52.95993744 106.84607635 51.8371582 106.82885742 C50.14977287 106.79768578 50.14977287 106.79768578 48.42829895 106.7658844 C44.84199005 106.70060575 41.25560918 106.64160468 37.66918945 106.58276367 C35.23493728 106.53955784 32.80069233 106.49594289 30.36645508 106.4519043 C24.40494217 106.34494658 18.44335799 106.24314017 12.48168945 106.14526367 C12.48835129 107.06123825 12.49501312 107.97721283 12.50187683 108.92094421 C12.56201514 117.55773534 12.60767774 126.19445604 12.63712597 134.8314085 C12.65277463 139.27164843 12.67399823 143.7117152 12.70800781 148.15185547 C12.74062989 152.43772392 12.75854849 156.72342591 12.76632118 161.00940895 C12.77185958 162.64367098 12.7826748 164.27792402 12.79887962 165.9121151 C12.82069217 168.20316553 12.82365484 170.49353022 12.82226562 172.78466797 C12.82892746 174.08816696 12.83558929 175.39166595 12.842453 176.73466492 C12.31811243 181.6916937 10.61280058 184.15209293 6.91918945 187.39526367 C1.97173708 189.9139667 -3.07991754 190.94124839 -8.5769043 189.66870117 C-13.17364687 187.86954601 -16.42229897 185.36578874 -18.60748577 180.9385891 C-19.69529729 177.60247917 -19.77301759 174.83707373 -19.77900696 171.32705688 C-19.78283251 170.65393758 -19.78665805 169.98081828 -19.79059952 169.28730142 C-19.80089238 167.03886623 -19.79694452 164.79068817 -19.79296875 162.54223633 C-19.79731732 160.92725896 -19.80250095 159.31228365 -19.80845642 157.6973114 C-19.82184287 153.31502257 -19.82242543 148.93281999 -19.81989312 144.5505147 C-19.81882306 140.89002806 -19.82370774 137.22955885 -19.82849854 133.56907594 C-19.83959274 124.93169817 -19.84003178 116.29436388 -19.83398438 107.65698242 C-19.82794526 98.75183603 -19.8402542 89.84684766 -19.86155444 80.94172823 C-19.87917913 73.29146494 -19.88517039 65.64125191 -19.8819167 57.99096906 C-19.88010491 53.42389401 -19.88272953 48.85693167 -19.89663124 44.28987503 C-19.90921889 39.99376302 -19.90725665 35.697897 -19.89422035 31.40178871 C-19.89185697 29.82764286 -19.89458073 28.25347965 -19.90284348 26.67935371 C-19.91333343 24.52509807 -19.90519321 22.37166443 -19.89253235 20.21743774 C-19.89270009 19.01361765 -19.89286783 17.80979755 -19.89304066 16.56949806 C-19.3910188 11.98208845 -18.07831257 8.00062607 -15.0534668 4.40307617 C-9.86194972 0.4096015 -6.45718345 0.02111622 0 0 Z M12.48168945 26.14526367 C12.48168945 44.29526367 12.48168945 62.44526367 12.48168945 81.14526367 C18.56606445 81.18651367 24.65043945 81.22776367 30.91918945 81.27026367 C32.80049561 81.28847168 34.68180176 81.30667969 36.62011719 81.32543945 C62.07441858 81.94341747 62.07441858 81.94341747 84.0090332 70.87963867 C89.60111349 64.29374041 90.16769235 57.26364824 89.9387207 48.81713867 C89.04170867 41.61037536 85.97416943 35.89283226 80.48168945 31.14526367 C77.9381395 29.8576936 77.9381395 29.8576936 75.16918945 28.95776367 C74.26555664 28.63420898 73.36192383 28.3106543 72.4309082 27.97729492 C65.26521511 25.95571528 58.25522335 26.01136344 50.8605957 26.04760742 C49.88473511 26.0486145 48.90887451 26.04962158 47.90344238 26.05065918 C44.28367933 26.05586221 40.66393312 26.06982334 37.04418945 26.08276367 C28.93856445 26.10338867 20.83293945 26.12401367 12.48168945 26.14526367 Z " fill="#EBE7CA" transform="translate(685.518310546875,2.854736328125)"/>
<path d="M0 0 C0.97279907 -0.00708481 1.94559814 -0.01416962 2.94787598 -0.02146912 C4.00358795 -0.0189917 5.05929993 -0.01651428 6.14700317 -0.01396179 C7.26790344 -0.01907272 8.38880371 -0.02418365 9.54367065 -0.02944946 C13.24890483 -0.04334904 16.95395306 -0.0423883 20.65921021 -0.04008484 C23.236044 -0.0439717 25.81287715 -0.04830635 28.38970947 -0.05307007 C33.79157865 -0.06053319 39.1933758 -0.06037881 44.59524536 -0.05497742 C50.82837109 -0.04894039 57.06127094 -0.06124387 63.29435813 -0.08254749 C69.30275284 -0.10232385 75.31102971 -0.10533287 81.31946182 -0.10181236 C83.87031713 -0.10232554 86.42117605 -0.10756261 88.97201157 -0.11762428 C92.54093523 -0.12997335 96.10933772 -0.12320543 99.67825317 -0.11161804 C100.72991669 -0.11926178 101.7815802 -0.12690552 102.8651123 -0.13478088 C108.70262895 -0.09293241 112.9070781 0.40379192 118.04202271 3.26069641 C121.32277239 6.70968967 122.3206148 9.4861303 122.54202271 14.13569641 C122.09486108 23.25508346 116.40925364 29.78320614 111.31936646 36.98725891 C109.38632381 39.76580048 107.56840767 42.5687694 105.79202271 45.44819641 C102.20340359 51.1569882 98.25240534 56.57548181 94.28640747 62.02436829 C86.3416207 72.94802935 78.65767699 84.05432703 70.95217896 95.14741516 C69.56548208 97.14352411 68.1787634 99.13961791 66.79202271 101.13569641 C66.11631226 102.1086969 65.44060181 103.08169739 64.74441528 104.08418274 C61.00530295 109.46159193 57.23917819 114.81701207 53.41702271 120.13569641 C49.84552016 125.10662717 46.39807186 130.1420538 43.04202271 135.26069641 C38.51531066 142.10621418 33.92794684 148.90462571 29.27249146 155.66304016 C28.7672998 156.39712097 28.26210815 157.13120178 27.74160767 157.88752747 C26.50876723 159.67882785 25.275445 161.46979662 24.04202271 163.26069641 C25.7166584 163.26616486 25.7166584 163.26616486 27.42512512 163.27174377 C37.94578556 163.30868315 48.46615301 163.36644434 58.98659039 163.44459915 C64.39529828 163.48411025 69.80384248 163.51628098 75.212677 163.5316925 C80.43241999 163.54683505 85.65171305 163.58123812 90.87125587 163.62900543 C92.86271059 163.64384399 94.85422954 163.65173884 96.84573936 163.65258026 C99.63520669 163.65494421 102.42342482 163.6819776 105.212677 163.71479797 C106.03626709 163.70976761 106.85985718 163.70473724 107.70840454 163.69955444 C112.7427492 163.79121465 115.37859602 164.49121483 119.04202271 168.26069641 C121.89541479 172.56672447 121.67885725 177.27609026 121.04202271 182.26069641 C119.33320488 185.80491115 118.25462488 187.66931986 114.70457172 189.40065289 C112.00801697 190.27168078 109.95090006 190.51443822 107.1287384 190.52139282 C106.16579865 190.52847763 105.20285889 190.53556244 104.21073914 190.54286194 C103.16594894 190.54038452 102.12115875 190.5379071 101.04470825 190.53535461 C99.93516785 190.54046555 98.82562744 190.54557648 97.6824646 190.55084229 C94.014502 190.56474226 90.34672726 190.56378095 86.67874146 190.56147766 C84.12672353 190.56536479 81.57470626 190.56969949 79.02268982 190.57446289 C73.67209511 190.5819263 68.32156924 190.58177169 62.97097778 190.57637024 C56.80035508 190.57033634 50.62996074 190.58262861 44.45937699 190.60394031 C38.50866579 190.62373152 32.55802485 190.6267238 26.60727882 190.62320518 C24.08236976 190.62371798 21.55745702 190.62894784 19.03256798 190.63901711 C15.49737461 190.65138345 11.96270602 190.64458766 8.42752075 190.63301086 C7.38880325 190.6406546 6.35008575 190.64829834 5.27989197 190.65617371 C-0.83065219 190.61205048 -5.41412276 189.8981042 -10.95797729 187.26069641 C-14.35389897 183.6906249 -16.10821066 181.03785699 -16.27047729 176.13569641 C-16.30786011 175.41124329 -16.34524292 174.68679016 -16.38375854 173.94038391 C-15.08584131 165.77184055 -8.98838268 158.71007826 -4.33297729 152.13569641 C-3.61730591 151.1166925 -2.90163452 150.0976886 -2.16427612 149.04780579 C-0.1014374 146.11452874 1.96887425 143.18669254 4.04202271 140.26069641 C4.80651733 139.17836731 4.80651733 139.17836731 5.5864563 138.07417297 C9.6577143 132.31309854 13.78680371 126.59782023 17.98391724 120.9276886 C27.17377719 108.49338575 35.90691874 95.78549841 44.04202271 82.63569641 C48.47002163 75.49080019 53.29093538 68.80234095 58.46560669 62.18208313 C62.14569957 57.46947813 65.55359376 52.66052904 68.80081177 47.63594055 C71.52733198 43.48096266 74.41365886 39.4390058 77.28811646 35.38569641 C78.11998474 34.21007141 78.11998474 34.21007141 78.96865845 33.01069641 C80.32553747 31.09338324 81.68334532 29.1767354 83.04202271 27.26069641 C81.92559891 27.25483017 80.80917511 27.24896393 79.65892029 27.24291992 C69.13829253 27.18570997 58.61787182 27.11295727 48.09745502 27.0249815 C42.68877463 26.98025173 37.28017003 26.94100124 31.87136841 26.91426086 C26.651685 26.88825407 21.43229281 26.84786999 16.21278954 26.79751015 C14.22133188 26.78082372 12.22982384 26.76932052 10.23830605 26.7630825 C7.44901619 26.75346083 4.66047435 26.72542453 1.87136841 26.69306946 C1.04777832 26.69450455 0.22418823 26.69593964 -0.62435913 26.69741821 C-5.22394935 26.62194802 -8.19947611 26.19990625 -11.95797729 23.26069641 C-15.22595442 18.65581956 -14.55356318 12.63567517 -13.95797729 7.26069641 C-10.87545038 1.55231324 -6.26748337 0.0152857 0 0 Z " fill="#EBE7CA" transform="translate(468.9579772949219,2.7393035888671875)"/>
<path d="M0 0 C3.9492853 4.2040779 4.1268783 8.09748549 4.14044189 13.69831848 C4.14341302 14.38268516 4.14638414 15.06705183 4.1494453 15.77215689 C4.15813248 18.07052903 4.15964056 20.36884907 4.16113281 22.66723633 C4.16576097 24.31309623 4.17078563 25.95895505 4.17617798 27.60481262 C4.18930418 32.08010131 4.19574737 36.555375 4.20018864 41.03067994 C4.20311901 43.8263146 4.20722375 46.62194515 4.21169281 49.41757774 C4.22536832 58.16345094 4.23503471 66.90931477 4.2388947 75.65519792 C4.24337573 85.75292731 4.26092548 95.85052135 4.2898953 105.94820958 C4.31150763 113.75212374 4.32159874 121.5559998 4.32293582 129.35994357 C4.32398417 134.02148208 4.32989835 138.68289338 4.34775543 143.34440041 C4.36422836 147.7299318 4.36639543 152.11524025 4.35761642 156.50079155 C4.35684563 158.10922467 4.36119436 159.71766974 4.37107468 161.32607269 C4.38378637 163.52455727 4.37792227 165.72225125 4.36749268 167.92073059 C4.36895924 169.15019315 4.3704258 170.3796557 4.3719368 171.6463747 C3.81248219 176.69078319 2.19342167 179.92300971 -1.5625 183.3125 C-7.36132683 186.15919681 -13.16493737 186.90253911 -19.375 184.875 C-23.64073732 183.0049697 -25.93371332 180.13257337 -28 176 C-28.10312868 173.78385858 -28.13954978 171.56453489 -28.14717102 169.3460083 C-28.15084771 168.65432894 -28.1545244 167.96264959 -28.1583125 167.25001025 C-28.16936876 164.92089786 -28.17319646 162.59183005 -28.17700195 160.26269531 C-28.18326516 158.59727842 -28.18991184 156.93186292 -28.19691467 155.26644897 C-28.21433818 150.73325613 -28.22488022 146.20007385 -28.2331202 141.66685581 C-28.23826776 138.83554717 -28.24434361 136.00424181 -28.25063133 133.17293549 C-28.26968763 124.3170706 -28.28391754 115.46121407 -28.2922433 106.60533261 C-28.30201677 96.37794333 -28.32833729 86.15077042 -28.36874419 75.92345738 C-28.3988924 68.0219006 -28.41371096 60.12040587 -28.41702431 52.21879268 C-28.41937639 47.4979498 -28.42835704 42.77733795 -28.45348549 38.0565567 C-28.47674846 33.61435993 -28.48100666 29.17254659 -28.47072411 24.73030472 C-28.47022819 23.10090231 -28.47656504 21.47148114 -28.49028015 19.84213638 C-28.50797689 17.61494027 -28.50090534 15.38912352 -28.48774719 13.16192627 C-28.49013555 11.91641621 -28.4925239 10.67090614 -28.49498463 9.38765335 C-27.78752718 4.54584521 -25.58904525 1.44007225 -22 -1.8125 C-14.71777936 -6.1363185 -6.6976 -4.52165161 0 0 Z " fill="#EBE7CA" transform="translate(367,7)"/>
</svg>
